<?xml version="1.0" encoding="utf-8" standalone="no"?>
<!DOCTYPE svg PUBLIC "-//W3C//DTD SVG 1.1//EN"
  "http://www.w3.org/Graphics/SVG/1.1/DTD/svg11.dtd">
<svg xmlns:xlink="http://www.w3.org/1999/xlink" width="2160pt" height="2160pt" viewBox="0 0 2160 2160" xmlns="http://www.w3.org/2000/svg" version="1.1">
 <metadata>
  <rdf:RDF xmlns:dc="http://purl.org/dc/elements/1.1/" xmlns:cc="http://creativecommons.org/ns#" xmlns:rdf="http://www.w3.org/1999/02/22-rdf-syntax-ns#">
   <cc:Work>
    <dc:type rdf:resource="http://purl.org/dc/dcmitype/StillImage"/>
    <dc:date>2023-06-08T14:34:14.031062</dc:date>
    <dc:format>image/svg+xml</dc:format>
    <dc:creator>
     <cc:Agent>
      <dc:title>Matplotlib v3.7.1, https://matplotlib.org/</dc:title>
     </cc:Agent>
    </dc:creator>
   </cc:Work>
  </rdf:RDF>
 </metadata>
 <defs>
  <style type="text/css">*{stroke-linejoin: round; stroke-linecap: butt}</style>
 </defs>
 <g id="figure_1">
  <g id="patch_1">
   <path d="M 0 2160 
L 2160 2160 
L 2160 0 
L 0 0 
z
" style="fill: #ffffff"/>
  </g>
  <g id="axes_1">
   <g id="patch_2">
    <path d="M 270 1922.4 
L 1944 1922.4 
L 1944 259.2 
L 270 259.2 
z
" style="fill: #eaeaf2"/>
   </g>
   <g id="matplotlib.axis_1">
    <g id="xtick_1">
     <g id="line2d_1">
      <path d="M 384.366877 1922.4 
L 384.366877 259.2 
" clip-path="url(#p06859b3f87)" style="fill: none; stroke: #ffffff; stroke-linecap: round"/>
     </g>
    </g>
    <g id="xtick_2">
     <g id="line2d_2">
      <path d="M 748.010985 1922.4 
L 748.010985 259.2 
" clip-path="url(#p06859b3f87)" style="fill: none; stroke: #ffffff; stroke-linecap: round"/>
     </g>
    </g>
    <g id="xtick_3">
     <g id="line2d_3">
      <path d="M 1111.655092 1922.4 
L 1111.655092 259.2 
" clip-path="url(#p06859b3f87)" style="fill: none; stroke: #ffffff; stroke-linecap: round"/>
     </g>
    </g>
    <g id="xtick_4">
     <g id="line2d_4">
      <path d="M 1475.2992 1922.4 
L 1475.2992 259.2 
" clip-path="url(#p06859b3f87)" style="fill: none; stroke: #ffffff; stroke-linecap: round"/>
     </g>
    </g>
    <g id="xtick_5">
     <g id="line2d_5">
      <path d="M 1838.943308 1922.4 
L 1838.943308 259.2 
" clip-path="url(#p06859b3f87)" style="fill: none; stroke: #ffffff; stroke-linecap: round"/>
     </g>
    </g>
   </g>
   <g id="matplotlib.axis_2">
    <g id="ytick_1">
     <g id="line2d_6">
      <path d="M 270 1795.291348 
L 1944 1795.291348 
" clip-path="url(#p06859b3f87)" style="fill: none; stroke: #ffffff; stroke-linecap: round"/>
     </g>
    </g>
    <g id="ytick_2">
     <g id="line2d_7">
      <path d="M 270 1447.350329 
L 1944 1447.350329 
" clip-path="url(#p06859b3f87)" style="fill: none; stroke: #ffffff; stroke-linecap: round"/>
     </g>
    </g>
    <g id="ytick_3">
     <g id="line2d_8">
      <path d="M 270 1099.409311 
L 1944 1099.409311 
" clip-path="url(#p06859b3f87)" style="fill: none; stroke: #ffffff; stroke-linecap: round"/>
     </g>
    </g>
    <g id="ytick_4">
     <g id="line2d_9">
      <path d="M 270 751.468292 
L 1944 751.468292 
" clip-path="url(#p06859b3f87)" style="fill: none; stroke: #ffffff; stroke-linecap: round"/>
     </g>
    </g>
    <g id="ytick_5">
     <g id="line2d_10">
      <path d="M 270 403.527273 
L 1944 403.527273 
" clip-path="url(#p06859b3f87)" style="fill: none; stroke: #ffffff; stroke-linecap: round"/>
     </g>
    </g>
   </g>
   <g id="LineCollection_1">
    <path d="M 1020.548165 1305.766628 
L 615.361722 1655.231244 
" clip-path="url(#p06859b3f87)" style="fill: none; stroke: #1a1a1a; stroke-opacity: 0.05"/>
    <path d="M 1020.548165 1305.766628 
L 1323.112108 1735.323293 
" clip-path="url(#p06859b3f87)" style="fill: none; stroke: #1a1a1a; stroke-opacity: 0.05"/>
    <path d="M 1020.548165 1305.766628 
L 1492.710616 1433.76944 
" clip-path="url(#p06859b3f87)" style="fill: none; stroke: #1a1a1a; stroke-opacity: 0.05"/>
    <path d="M 1020.548165 1305.766628 
L 1617.558583 1153.016257 
" clip-path="url(#p06859b3f87)" style="fill: none; stroke: #1a1a1a; stroke-opacity: 0.05"/>
    <path d="M 1020.548165 1305.766628 
L 1167.043375 1078.812612 
" clip-path="url(#p06859b3f87)" style="fill: none; stroke: #1a1a1a; stroke-opacity: 0.05"/>
    <path d="M 1020.548165 1305.766628 
L 1300.297928 937.140185 
" clip-path="url(#p06859b3f87)" style="fill: none; stroke: #1a1a1a; stroke-opacity: 0.05"/>
    <path d="M 1020.548165 1305.766628 
L 747.013316 941.191609 
" clip-path="url(#p06859b3f87)" style="fill: none; stroke: #1a1a1a; stroke-opacity: 0.05"/>
    <path d="M 1020.548165 1305.766628 
L 1085.362655 1528.936644 
" clip-path="url(#p06859b3f87)" style="fill: none; stroke: #1a1a1a; stroke-opacity: 0.05"/>
    <path d="M 615.361722 1655.231244 
L 1323.112108 1735.323293 
" clip-path="url(#p06859b3f87)" style="fill: none; stroke: #1a1a1a; stroke-opacity: 0.05"/>
    <path d="M 1337.232116 740.007291 
L 1108.541614 753.630579 
" clip-path="url(#p06859b3f87)" style="fill: none; stroke: #1a1a1a; stroke-opacity: 0.05"/>
    <path d="M 1337.232116 740.007291 
L 533.247513 918.580749 
" clip-path="url(#p06859b3f87)" style="fill: none; stroke: #1a1a1a; stroke-opacity: 0.05"/>
    <path d="M 1108.541614 753.630579 
L 533.247513 918.580749 
" clip-path="url(#p06859b3f87)" style="fill: none; stroke: #1a1a1a; stroke-opacity: 0.05"/>
    <path d="M 1108.541614 753.630579 
L 1507.582685 527.014755 
" clip-path="url(#p06859b3f87)" style="fill: none; stroke: #1a1a1a; stroke-opacity: 0.05"/>
    <path d="M 1108.541614 753.630579 
L 827.554913 519.304456 
" clip-path="url(#p06859b3f87)" style="fill: none; stroke: #1a1a1a; stroke-opacity: 0.05"/>
    <path d="M 1108.541614 753.630579 
L 1268.000359 1050.322494 
" clip-path="url(#p06859b3f87)" style="fill: none; stroke: #1a1a1a; stroke-opacity: 0.05"/>
    <path d="M 1108.541614 753.630579 
L 1369.658628 673.507314 
" clip-path="url(#p06859b3f87)" style="fill: none; stroke: #1a1a1a; stroke-opacity: 0.05"/>
    <path d="M 1108.541614 753.630579 
L 1775.332014 1003.218541 
" clip-path="url(#p06859b3f87)" style="fill: none; stroke: #1a1a1a; stroke-opacity: 0.05"/>
    <path d="M 1108.541614 753.630579 
L 1032.476348 623.447747 
" clip-path="url(#p06859b3f87)" style="fill: none; stroke: #1a1a1a; stroke-opacity: 0.05"/>
    <path d="M 1108.541614 753.630579 
L 917.310493 953.269024 
" clip-path="url(#p06859b3f87)" style="fill: none; stroke: #1a1a1a; stroke-opacity: 0.05"/>
    <path d="M 1108.541614 753.630579 
L 1549.328318 531.453559 
" clip-path="url(#p06859b3f87)" style="fill: none; stroke: #1a1a1a; stroke-opacity: 0.05"/>
    <path d="M 1108.541614 753.630579 
L 634.297823 599.872438 
" clip-path="url(#p06859b3f87)" style="fill: none; stroke: #1a1a1a; stroke-opacity: 0.05"/>
    <path d="M 1108.541614 753.630579 
L 662.49896 1207.333687 
" clip-path="url(#p06859b3f87)" style="fill: none; stroke: #1a1a1a; stroke-opacity: 0.05"/>
    <path d="M 1108.541614 753.630579 
L 1060.483011 1039.942402 
" clip-path="url(#p06859b3f87)" style="fill: none; stroke: #1a1a1a; stroke-opacity: 0.05"/>
    <path d="M 1492.710616 1433.76944 
L 1167.043375 1078.812612 
" clip-path="url(#p06859b3f87)" style="fill: none; stroke: #1a1a1a; stroke-opacity: 0.05"/>
    <path d="M 1492.710616 1433.76944 
L 1300.297928 937.140185 
" clip-path="url(#p06859b3f87)" style="fill: none; stroke: #1a1a1a; stroke-opacity: 0.05"/>
    <path d="M 1492.710616 1433.76944 
L 1005.667965 1751.782187 
" clip-path="url(#p06859b3f87)" style="fill: none; stroke: #1a1a1a; stroke-opacity: 0.05"/>
    <path d="M 1492.710616 1433.76944 
L 1443.378132 1564.052485 
" clip-path="url(#p06859b3f87)" style="fill: none; stroke: #1a1a1a; stroke-opacity: 0.05"/>
    <path d="M 1167.043375 1078.812612 
L 1617.558583 1153.016257 
" clip-path="url(#p06859b3f87)" style="fill: none; stroke: #1a1a1a; stroke-opacity: 0.05"/>
    <path d="M 1167.043375 1078.812612 
L 1300.297928 937.140185 
" clip-path="url(#p06859b3f87)" style="fill: none; stroke: #1a1a1a; stroke-opacity: 0.05"/>
    <path d="M 1167.043375 1078.812612 
L 1232.448415 1503.833122 
" clip-path="url(#p06859b3f87)" style="fill: none; stroke: #1a1a1a; stroke-opacity: 0.05"/>
    <path d="M 1167.043375 1078.812612 
L 1325.768966 1617.66634 
" clip-path="url(#p06859b3f87)" style="fill: none; stroke: #1a1a1a; stroke-opacity: 0.05"/>
    <path d="M 1167.043375 1078.812612 
L 1141.120532 1778.072727 
" clip-path="url(#p06859b3f87)" style="fill: none; stroke: #1a1a1a; stroke-opacity: 0.05"/>
    <path d="M 1167.043375 1078.812612 
L 1191.316659 434.52903 
" clip-path="url(#p06859b3f87)" style="fill: none; stroke: #1a1a1a; stroke-opacity: 0.05"/>
    <path d="M 1167.043375 1078.812612 
L 881.23989 450.235667 
" clip-path="url(#p06859b3f87)" style="fill: none; stroke: #1a1a1a; stroke-opacity: 0.05"/>
    <path d="M 1167.043375 1078.812612 
L 1402.72394 567.025673 
" clip-path="url(#p06859b3f87)" style="fill: none; stroke: #1a1a1a; stroke-opacity: 0.05"/>
    <path d="M 1167.043375 1078.812612 
L 1002.90456 1210.485259 
" clip-path="url(#p06859b3f87)" style="fill: none; stroke: #1a1a1a; stroke-opacity: 0.05"/>
    <path d="M 1167.043375 1078.812612 
L 985.014314 764.098171 
" clip-path="url(#p06859b3f87)" style="fill: none; stroke: #1a1a1a; stroke-opacity: 0.05"/>
    <path d="M 1167.043375 1078.812612 
L 759.950207 1074.47063 
" clip-path="url(#p06859b3f87)" style="fill: none; stroke: #1a1a1a; stroke-opacity: 0.05"/>
    <path d="M 1167.043375 1078.812612 
L 573.4883 1138.350174 
" clip-path="url(#p06859b3f87)" style="fill: none; stroke: #1a1a1a; stroke-opacity: 0.05"/>
    <path d="M 1167.043375 1078.812612 
L 1177.469433 1195.424601 
" clip-path="url(#p06859b3f87)" style="fill: none; stroke: #1a1a1a; stroke-opacity: 0.05"/>
    <path d="M 1167.043375 1078.812612 
L 1744.40783 965.293682 
" clip-path="url(#p06859b3f87)" style="fill: none; stroke: #1a1a1a; stroke-opacity: 0.05"/>
    <path d="M 1167.043375 1078.812612 
L 1093.42329 1650.889601 
" clip-path="url(#p06859b3f87)" style="fill: none; stroke: #1a1a1a; stroke-opacity: 0.05"/>
    <path d="M 1167.043375 1078.812612 
L 1032.476348 623.447747 
" clip-path="url(#p06859b3f87)" style="fill: none; stroke: #1a1a1a; stroke-opacity: 0.05"/>
    <path d="M 1300.297928 937.140185 
L 1617.558583 1153.016257 
" clip-path="url(#p06859b3f87)" style="fill: none; stroke: #1a1a1a; stroke-opacity: 0.05"/>
    <path d="M 1300.297928 937.140185 
L 1747.14651 830.38006 
" clip-path="url(#p06859b3f87)" style="fill: none; stroke: #1a1a1a; stroke-opacity: 0.05"/>
    <path d="M 1300.297928 937.140185 
L 1326.794787 513.029457 
" clip-path="url(#p06859b3f87)" style="fill: none; stroke: #1a1a1a; stroke-opacity: 0.05"/>
    <path d="M 1300.297928 937.140185 
L 1480.833832 515.926734 
" clip-path="url(#p06859b3f87)" style="fill: none; stroke: #1a1a1a; stroke-opacity: 0.05"/>
    <path d="M 1300.297928 937.140185 
L 1468.658585 1316.524262 
" clip-path="url(#p06859b3f87)" style="fill: none; stroke: #1a1a1a; stroke-opacity: 0.05"/>
    <path d="M 1300.297928 937.140185 
L 681.92118 596.376758 
" clip-path="url(#p06859b3f87)" style="fill: none; stroke: #1a1a1a; stroke-opacity: 0.05"/>
    <path d="M 1300.297928 937.140185 
L 953.921299 439.217349 
" clip-path="url(#p06859b3f87)" style="fill: none; stroke: #1a1a1a; stroke-opacity: 0.05"/>
    <path d="M 546.266028 882.351765 
L 731.32519 681.327019 
" clip-path="url(#p06859b3f87)" style="fill: none; stroke: #1a1a1a; stroke-opacity: 0.05"/>
    <path d="M 546.266028 882.351765 
L 917.310493 953.269024 
" clip-path="url(#p06859b3f87)" style="fill: none; stroke: #1a1a1a; stroke-opacity: 0.05"/>
    <path d="M 731.32519 681.327019 
L 917.310493 953.269024 
" clip-path="url(#p06859b3f87)" style="fill: none; stroke: #1a1a1a; stroke-opacity: 0.05"/>
    <path d="M 917.310493 953.269024 
L 1198.994223 600.16702 
" clip-path="url(#p06859b3f87)" style="fill: none; stroke: #1a1a1a; stroke-opacity: 0.05"/>
    <path d="M 917.310493 953.269024 
L 415.264463 1133.674582 
" clip-path="url(#p06859b3f87)" style="fill: none; stroke: #1a1a1a; stroke-opacity: 0.05"/>
    <path d="M 917.310493 953.269024 
L 512.07756 756.526555 
" clip-path="url(#p06859b3f87)" style="fill: none; stroke: #1a1a1a; stroke-opacity: 0.05"/>
    <path d="M 917.310493 953.269024 
L 1188.005516 879.340314 
" clip-path="url(#p06859b3f87)" style="fill: none; stroke: #1a1a1a; stroke-opacity: 0.05"/>
    <path d="M 917.310493 953.269024 
L 1715.52996 1347.421106 
" clip-path="url(#p06859b3f87)" style="fill: none; stroke: #1a1a1a; stroke-opacity: 0.05"/>
    <path d="M 1501.369396 1307.905325 
L 1443.378132 1564.052485 
" clip-path="url(#p06859b3f87)" style="fill: none; stroke: #1a1a1a; stroke-opacity: 0.05"/>
    <path d="M 1501.369396 1307.905325 
L 1226.280548 1133.927417 
" clip-path="url(#p06859b3f87)" style="fill: none; stroke: #1a1a1a; stroke-opacity: 0.05"/>
    <path d="M 1501.369396 1307.905325 
L 1268.000359 1050.322494 
" clip-path="url(#p06859b3f87)" style="fill: none; stroke: #1a1a1a; stroke-opacity: 0.05"/>
    <path d="M 1501.369396 1307.905325 
L 1575.6902 1620.361781 
" clip-path="url(#p06859b3f87)" style="fill: none; stroke: #1a1a1a; stroke-opacity: 0.05"/>
    <path d="M 1501.369396 1307.905325 
L 804.69971 1611.09424 
" clip-path="url(#p06859b3f87)" style="fill: none; stroke: #1a1a1a; stroke-opacity: 0.05"/>
    <path d="M 1443.378132 1564.052485 
L 1226.280548 1133.927417 
" clip-path="url(#p06859b3f87)" style="fill: none; stroke: #1a1a1a; stroke-opacity: 0.05"/>
    <path d="M 1443.378132 1564.052485 
L 1268.000359 1050.322494 
" clip-path="url(#p06859b3f87)" style="fill: none; stroke: #1a1a1a; stroke-opacity: 0.05"/>
    <path d="M 1443.378132 1564.052485 
L 1005.667965 1751.782187 
" clip-path="url(#p06859b3f87)" style="fill: none; stroke: #1a1a1a; stroke-opacity: 0.05"/>
    <path d="M 1443.378132 1564.052485 
L 1560.269494 1539.772192 
" clip-path="url(#p06859b3f87)" style="fill: none; stroke: #1a1a1a; stroke-opacity: 0.05"/>
    <path d="M 1226.280548 1133.927417 
L 1268.000359 1050.322494 
" clip-path="url(#p06859b3f87)" style="fill: none; stroke: #1a1a1a; stroke-opacity: 0.05"/>
    <path d="M 1226.280548 1133.927417 
L 1060.483011 1039.942402 
" clip-path="url(#p06859b3f87)" style="fill: none; stroke: #1a1a1a; stroke-opacity: 0.05"/>
    <path d="M 1226.280548 1133.927417 
L 1671.268844 764.315862 
" clip-path="url(#p06859b3f87)" style="fill: none; stroke: #1a1a1a; stroke-opacity: 0.05"/>
    <path d="M 1226.280548 1133.927417 
L 1369.658628 673.507314 
" clip-path="url(#p06859b3f87)" style="fill: none; stroke: #1a1a1a; stroke-opacity: 0.05"/>
    <path d="M 1226.280548 1133.927417 
L 879.081952 1680.764877 
" clip-path="url(#p06859b3f87)" style="fill: none; stroke: #1a1a1a; stroke-opacity: 0.05"/>
    <path d="M 1226.280548 1133.927417 
L 1242.767384 1767.754532 
" clip-path="url(#p06859b3f87)" style="fill: none; stroke: #1a1a1a; stroke-opacity: 0.05"/>
    <path d="M 1226.280548 1133.927417 
L 1072.478808 403.527273 
" clip-path="url(#p06859b3f87)" style="fill: none; stroke: #1a1a1a; stroke-opacity: 0.05"/>
    <path d="M 1226.280548 1133.927417 
L 806.169223 1729.410236 
" clip-path="url(#p06859b3f87)" style="fill: none; stroke: #1a1a1a; stroke-opacity: 0.05"/>
    <path d="M 1226.280548 1133.927417 
L 1798.735537 1290.026811 
" clip-path="url(#p06859b3f87)" style="fill: none; stroke: #1a1a1a; stroke-opacity: 0.05"/>
    <path d="M 1268.000359 1050.322494 
L 859.700028 1231.112661 
" clip-path="url(#p06859b3f87)" style="fill: none; stroke: #1a1a1a; stroke-opacity: 0.05"/>
    <path d="M 1268.000359 1050.322494 
L 1369.658628 673.507314 
" clip-path="url(#p06859b3f87)" style="fill: none; stroke: #1a1a1a; stroke-opacity: 0.05"/>
    <path d="M 1268.000359 1050.322494 
L 1198.994223 600.16702 
" clip-path="url(#p06859b3f87)" style="fill: none; stroke: #1a1a1a; stroke-opacity: 0.05"/>
    <path d="M 1268.000359 1050.322494 
L 662.49896 1207.333687 
" clip-path="url(#p06859b3f87)" style="fill: none; stroke: #1a1a1a; stroke-opacity: 0.05"/>
    <path d="M 1268.000359 1050.322494 
L 1060.483011 1039.942402 
" clip-path="url(#p06859b3f87)" style="fill: none; stroke: #1a1a1a; stroke-opacity: 0.05"/>
    <path d="M 1507.582685 527.014755 
L 827.554913 519.304456 
" clip-path="url(#p06859b3f87)" style="fill: none; stroke: #1a1a1a; stroke-opacity: 0.05"/>
    <path d="M 1060.483011 1039.942402 
L 1672.389967 924.231678 
" clip-path="url(#p06859b3f87)" style="fill: none; stroke: #1a1a1a; stroke-opacity: 0.05"/>
    <path d="M 1060.483011 1039.942402 
L 985.014314 764.098171 
" clip-path="url(#p06859b3f87)" style="fill: none; stroke: #1a1a1a; stroke-opacity: 0.05"/>
    <path d="M 1060.483011 1039.942402 
L 759.798661 1659.288941 
" clip-path="url(#p06859b3f87)" style="fill: none; stroke: #1a1a1a; stroke-opacity: 0.05"/>
    <path d="M 1060.483011 1039.942402 
L 1369.658628 673.507314 
" clip-path="url(#p06859b3f87)" style="fill: none; stroke: #1a1a1a; stroke-opacity: 0.05"/>
    <path d="M 1060.483011 1039.942402 
L 662.49896 1207.333687 
" clip-path="url(#p06859b3f87)" style="fill: none; stroke: #1a1a1a; stroke-opacity: 0.05"/>
    <path d="M 1198.994223 600.16702 
L 1188.005516 879.340314 
" clip-path="url(#p06859b3f87)" style="fill: none; stroke: #1a1a1a; stroke-opacity: 0.05"/>
    <path d="M 415.264463 1133.674582 
L 1188.005516 879.340314 
" clip-path="url(#p06859b3f87)" style="fill: none; stroke: #1a1a1a; stroke-opacity: 0.05"/>
    <path d="M 512.07756 756.526555 
L 1188.005516 879.340314 
" clip-path="url(#p06859b3f87)" style="fill: none; stroke: #1a1a1a; stroke-opacity: 0.05"/>
    <path d="M 1005.667965 1751.782187 
L 1560.269494 1539.772192 
" clip-path="url(#p06859b3f87)" style="fill: none; stroke: #1a1a1a; stroke-opacity: 0.05"/>
    <path d="M 1002.90456 1210.485259 
L 475.677146 1250.213731 
" clip-path="url(#p06859b3f87)" style="fill: none; stroke: #1a1a1a; stroke-opacity: 0.05"/>
    <path d="M 1002.90456 1210.485259 
L 561.543686 1479.304912 
" clip-path="url(#p06859b3f87)" style="fill: none; stroke: #1a1a1a; stroke-opacity: 0.05"/>
    <path d="M 1002.90456 1210.485259 
L 759.950207 1074.47063 
" clip-path="url(#p06859b3f87)" style="fill: none; stroke: #1a1a1a; stroke-opacity: 0.05"/>
    <path d="M 1002.90456 1210.485259 
L 1177.469433 1195.424601 
" clip-path="url(#p06859b3f87)" style="fill: none; stroke: #1a1a1a; stroke-opacity: 0.05"/>
    <path d="M 1002.90456 1210.485259 
L 1232.448415 1503.833122 
" clip-path="url(#p06859b3f87)" style="fill: none; stroke: #1a1a1a; stroke-opacity: 0.05"/>
    <path d="M 1002.90456 1210.485259 
L 1744.40783 965.293682 
" clip-path="url(#p06859b3f87)" style="fill: none; stroke: #1a1a1a; stroke-opacity: 0.05"/>
    <path d="M 1002.90456 1210.485259 
L 1093.42329 1650.889601 
" clip-path="url(#p06859b3f87)" style="fill: none; stroke: #1a1a1a; stroke-opacity: 0.05"/>
    <path d="M 1002.90456 1210.485259 
L 1032.476348 623.447747 
" clip-path="url(#p06859b3f87)" style="fill: none; stroke: #1a1a1a; stroke-opacity: 0.05"/>
    <path d="M 475.677146 1250.213731 
L 561.543686 1479.304912 
" clip-path="url(#p06859b3f87)" style="fill: none; stroke: #1a1a1a; stroke-opacity: 0.05"/>
    <path d="M 1232.448415 1503.833122 
L 1325.768966 1617.66634 
" clip-path="url(#p06859b3f87)" style="fill: none; stroke: #1a1a1a; stroke-opacity: 0.05"/>
    <path d="M 1232.448415 1503.833122 
L 1516.241242 1648.611869 
" clip-path="url(#p06859b3f87)" style="fill: none; stroke: #1a1a1a; stroke-opacity: 0.05"/>
    <path d="M 1325.768966 1617.66634 
L 1141.120532 1778.072727 
" clip-path="url(#p06859b3f87)" style="fill: none; stroke: #1a1a1a; stroke-opacity: 0.05"/>
    <path d="M 1747.14651 830.38006 
L 1326.794787 513.029457 
" clip-path="url(#p06859b3f87)" style="fill: none; stroke: #1a1a1a; stroke-opacity: 0.05"/>
    <path d="M 985.014314 764.098171 
L 759.950207 1074.47063 
" clip-path="url(#p06859b3f87)" style="fill: none; stroke: #1a1a1a; stroke-opacity: 0.05"/>
    <path d="M 985.014314 764.098171 
L 1177.469433 1195.424601 
" clip-path="url(#p06859b3f87)" style="fill: none; stroke: #1a1a1a; stroke-opacity: 0.05"/>
    <path d="M 1191.316659 434.52903 
L 881.23989 450.235667 
" clip-path="url(#p06859b3f87)" style="fill: none; stroke: #1a1a1a; stroke-opacity: 0.05"/>
    <path d="M 1191.316659 434.52903 
L 1402.72394 567.025673 
" clip-path="url(#p06859b3f87)" style="fill: none; stroke: #1a1a1a; stroke-opacity: 0.05"/>
    <path d="M 881.23989 450.235667 
L 1402.72394 567.025673 
" clip-path="url(#p06859b3f87)" style="fill: none; stroke: #1a1a1a; stroke-opacity: 0.05"/>
    <path d="M 1480.833832 515.926734 
L 1468.658585 1316.524262 
" clip-path="url(#p06859b3f87)" style="fill: none; stroke: #1a1a1a; stroke-opacity: 0.05"/>
    <path d="M 1369.658628 673.507314 
L 1671.268844 764.315862 
" clip-path="url(#p06859b3f87)" style="fill: none; stroke: #1a1a1a; stroke-opacity: 0.05"/>
    <path d="M 1369.658628 673.507314 
L 1775.332014 1003.218541 
" clip-path="url(#p06859b3f87)" style="fill: none; stroke: #1a1a1a; stroke-opacity: 0.05"/>
    <path d="M 1369.658628 673.507314 
L 1032.476348 623.447747 
" clip-path="url(#p06859b3f87)" style="fill: none; stroke: #1a1a1a; stroke-opacity: 0.05"/>
    <path d="M 859.700028 1231.112661 
L 1032.604797 1750.344201 
" clip-path="url(#p06859b3f87)" style="fill: none; stroke: #1a1a1a; stroke-opacity: 0.05"/>
    <path d="M 859.700028 1231.112661 
L 499.641097 866.505977 
" clip-path="url(#p06859b3f87)" style="fill: none; stroke: #1a1a1a; stroke-opacity: 0.05"/>
    <path d="M 859.700028 1231.112661 
L 531.489016 1331.021252 
" clip-path="url(#p06859b3f87)" style="fill: none; stroke: #1a1a1a; stroke-opacity: 0.05"/>
    <path d="M 1575.6902 1620.361781 
L 804.69971 1611.09424 
" clip-path="url(#p06859b3f87)" style="fill: none; stroke: #1a1a1a; stroke-opacity: 0.05"/>
    <path d="M 747.013316 941.191609 
L 1085.362655 1528.936644 
" clip-path="url(#p06859b3f87)" style="fill: none; stroke: #1a1a1a; stroke-opacity: 0.05"/>
    <path d="M 759.950207 1074.47063 
L 573.4883 1138.350174 
" clip-path="url(#p06859b3f87)" style="fill: none; stroke: #1a1a1a; stroke-opacity: 0.05"/>
    <path d="M 759.950207 1074.47063 
L 1177.469433 1195.424601 
" clip-path="url(#p06859b3f87)" style="fill: none; stroke: #1a1a1a; stroke-opacity: 0.05"/>
    <path d="M 1177.469433 1195.424601 
L 573.4883 1138.350174 
" clip-path="url(#p06859b3f87)" style="fill: none; stroke: #1a1a1a; stroke-opacity: 0.05"/>
    <path d="M 499.641097 866.505977 
L 531.489016 1331.021252 
" clip-path="url(#p06859b3f87)" style="fill: none; stroke: #1a1a1a; stroke-opacity: 0.05"/>
    <path d="M 1549.328318 531.453559 
L 634.297823 599.872438 
" clip-path="url(#p06859b3f87)" style="fill: none; stroke: #1a1a1a; stroke-opacity: 0.05"/>
    <path d="M 681.92118 596.376758 
L 953.921299 439.217349 
" clip-path="url(#p06859b3f87)" style="fill: none; stroke: #1a1a1a; stroke-opacity: 0.05"/>
   </g>
   <g id="PathCollection_1">
    <path d="M 1020.548165 1312.417216 
C 1022.311922 1312.417216 1024.003677 1311.716468 1025.250841 1310.469304 
C 1026.498005 1309.22214 1027.198753 1307.530385 1027.198753 1305.766628 
C 1027.198753 1304.002872 1026.498005 1302.311117 1025.250841 1301.063953 
C 1024.003677 1299.816788 1022.311922 1299.116041 1020.548165 1299.116041 
C 1018.784409 1299.116041 1017.092654 1299.816788 1015.845489 1301.063953 
C 1014.598325 1302.311117 1013.897577 1304.002872 1013.897577 1305.766628 
C 1013.897577 1307.530385 1014.598325 1309.22214 1015.845489 1310.469304 
C 1017.092654 1311.716468 1018.784409 1312.417216 1020.548165 1312.417216 
z
" clip-path="url(#p06859b3f87)" style="fill: #825234; fill-opacity: 0.6; stroke: #825234; stroke-opacity: 0.6"/>
    <path d="M 615.361722 1656.812383 
C 615.781045 1656.812383 616.18325 1656.645784 616.479756 1656.349278 
C 616.776262 1656.052772 616.942861 1655.650567 616.942861 1655.231244 
C 616.942861 1654.811921 616.776262 1654.409716 616.479756 1654.11321 
C 616.18325 1653.816704 615.781045 1653.650105 615.361722 1653.650105 
C 614.942399 1653.650105 614.540194 1653.816704 614.243688 1654.11321 
C 613.947182 1654.409716 613.780583 1654.811921 613.780583 1655.231244 
C 613.780583 1655.650567 613.947182 1656.052772 614.243688 1656.349278 
C 614.540194 1656.645784 614.942399 1656.812383 615.361722 1656.812383 
z
" clip-path="url(#p06859b3f87)" style="fill: #130c07; fill-opacity: 0.6; stroke: #130c07; stroke-opacity: 0.6"/>
    <path d="M 1323.112108 1736.904432 
C 1323.531431 1736.904432 1323.933636 1736.737833 1324.230142 1736.441327 
C 1324.526648 1736.144821 1324.693247 1735.742616 1324.693247 1735.323293 
C 1324.693247 1734.90397 1324.526648 1734.501765 1324.230142 1734.205259 
C 1323.933636 1733.908753 1323.531431 1733.742154 1323.112108 1733.742154 
C 1322.692785 1733.742154 1322.29058 1733.908753 1321.994074 1734.205259 
C 1321.697568 1734.501765 1321.530969 1734.90397 1321.530969 1735.323293 
C 1321.530969 1735.742616 1321.697568 1736.144821 1321.994074 1736.441327 
C 1322.29058 1736.737833 1322.692785 1736.904432 1323.112108 1736.904432 
z
" clip-path="url(#p06859b3f87)" style="fill: #130c07; fill-opacity: 0.6; stroke: #130c07; stroke-opacity: 0.6"/>
    <path d="M 1337.232116 741.588429 
C 1337.651439 741.588429 1338.053644 741.421831 1338.35015 741.125325 
C 1338.646657 740.828819 1338.813255 740.426614 1338.813255 740.007291 
C 1338.813255 739.587968 1338.646657 739.185763 1338.35015 738.889257 
C 1338.053644 738.592751 1337.651439 738.426152 1337.232116 738.426152 
C 1336.812794 738.426152 1336.410589 738.592751 1336.114082 738.889257 
C 1335.817576 739.185763 1335.650978 739.587968 1335.650978 740.007291 
C 1335.650978 740.426614 1335.817576 740.828819 1336.114082 741.125325 
C 1336.410589 741.421831 1336.812794 741.588429 1337.232116 741.588429 
z
" clip-path="url(#p06859b3f87)" style="fill: #130c07; fill-opacity: 0.6; stroke: #130c07; stroke-opacity: 0.6"/>
    <path d="M 1108.541614 772.401225 
C 1113.519648 772.401225 1118.294464 770.423431 1121.814466 766.90343 
C 1125.334467 763.383429 1127.312261 758.608612 1127.312261 753.630579 
C 1127.312261 748.652545 1125.334467 743.877729 1121.814466 740.357727 
C 1118.294464 736.837726 1113.519648 734.859932 1108.541614 734.859932 
C 1103.563581 734.859932 1098.788764 736.837726 1095.268763 740.357727 
C 1091.748762 743.877729 1089.770968 748.652545 1089.770968 753.630579 
C 1089.770968 758.608612 1091.748762 763.383429 1095.268763 766.90343 
C 1098.788764 770.423431 1103.563581 772.401225 1108.541614 772.401225 
z
" clip-path="url(#p06859b3f87)" style="fill: #de8d5a; fill-opacity: 0.6; stroke: #de8d5a; stroke-opacity: 0.6"/>
    <path d="M 533.247513 920.161888 
C 533.666836 920.161888 534.069041 919.995289 534.365547 919.698783 
C 534.662053 919.402277 534.828652 919.000072 534.828652 918.580749 
C 534.828652 918.161426 534.662053 917.759221 534.365547 917.462715 
C 534.069041 917.166209 533.666836 916.999611 533.247513 916.999611 
C 532.82819 916.999611 532.425985 917.166209 532.129479 917.462715 
C 531.832973 917.759221 531.666374 918.161426 531.666374 918.580749 
C 531.666374 919.000072 531.832973 919.402277 532.129479 919.698783 
C 532.425985 919.995289 532.82819 920.161888 533.247513 920.161888 
z
" clip-path="url(#p06859b3f87)" style="fill: #130c07; fill-opacity: 0.6; stroke: #130c07; stroke-opacity: 0.6"/>
    <path d="M 1492.710616 1442.587785 
C 1495.049268 1442.587785 1497.29245 1441.658629 1498.946127 1440.004952 
C 1500.599804 1438.351275 1501.528961 1436.108093 1501.528961 1433.76944 
C 1501.528961 1431.430788 1500.599804 1429.187606 1498.946127 1427.533929 
C 1497.29245 1425.880252 1495.049268 1424.951096 1492.710616 1424.951096 
C 1490.371964 1424.951096 1488.128781 1425.880252 1486.475105 1427.533929 
C 1484.821428 1429.187606 1483.892271 1431.430788 1483.892271 1433.76944 
C 1483.892271 1436.108093 1484.821428 1438.351275 1486.475105 1440.004952 
C 1488.128781 1441.658629 1490.371964 1442.587785 1492.710616 1442.587785 
z
" clip-path="url(#p06859b3f87)" style="fill: #4a2f1e; fill-opacity: 0.6; stroke: #4a2f1e; stroke-opacity: 0.6"/>
    <path d="M 1167.043375 1101.732377 
C 1173.121768 1101.732377 1178.952024 1099.317406 1183.250096 1095.019333 
C 1187.548169 1090.721261 1189.96314 1084.891005 1189.96314 1078.812612 
C 1189.96314 1072.734219 1187.548169 1066.903964 1183.250096 1062.605891 
C 1178.952024 1058.307818 1173.121768 1055.892847 1167.043375 1055.892847 
C 1160.964983 1055.892847 1155.134727 1058.307818 1150.836654 1062.605891 
C 1146.538582 1066.903964 1144.123611 1072.734219 1144.123611 1078.812612 
C 1144.123611 1084.891005 1146.538582 1090.721261 1150.836654 1095.019333 
C 1155.134727 1099.317406 1160.964983 1101.732377 1167.043375 1101.732377 
z
" clip-path="url(#p06859b3f87)" style="fill: #ffc77f; fill-opacity: 0.6; stroke: #ffc77f; stroke-opacity: 0.6"/>
    <path d="M 1300.297928 946.765114 
C 1302.85049 946.765114 1305.298848 945.750971 1307.103781 943.946038 
C 1308.908715 942.141104 1309.922858 939.692746 1309.922858 937.140185 
C 1309.922858 934.587623 1308.908715 932.139265 1307.103781 930.334332 
C 1305.298848 928.529398 1302.85049 927.515255 1300.297928 927.515255 
C 1297.745367 927.515255 1295.297009 928.529398 1293.492075 930.334332 
C 1291.687142 932.139265 1290.672999 934.587623 1290.672999 937.140185 
C 1290.672999 939.692746 1291.687142 942.141104 1293.492075 943.946038 
C 1295.297009 945.750971 1297.745367 946.765114 1300.297928 946.765114 
z
" clip-path="url(#p06859b3f87)" style="fill: #a76943; fill-opacity: 0.6; stroke: #a76943; stroke-opacity: 0.6"/>
    <path d="M 1617.558583 1154.597396 
C 1617.977906 1154.597396 1618.380111 1154.430797 1618.676617 1154.134291 
C 1618.973123 1153.837785 1619.139722 1153.43558 1619.139722 1153.016257 
C 1619.139722 1152.596934 1618.973123 1152.194729 1618.676617 1151.898223 
C 1618.380111 1151.601717 1617.977906 1151.435118 1617.558583 1151.435118 
C 1617.13926 1151.435118 1616.737055 1151.601717 1616.440549 1151.898223 
C 1616.144043 1152.194729 1615.977444 1152.596934 1615.977444 1153.016257 
C 1615.977444 1153.43558 1616.144043 1153.837785 1616.440549 1154.134291 
C 1616.737055 1154.430797 1617.13926 1154.597396 1617.558583 1154.597396 
z
" clip-path="url(#p06859b3f87)" style="fill: #25170f; fill-opacity: 0.6; stroke: #25170f; stroke-opacity: 0.6"/>
    <path d="M 546.266028 883.932904 
C 546.685351 883.932904 547.087556 883.766306 547.384062 883.469799 
C 547.680568 883.173293 547.847167 882.771088 547.847167 882.351765 
C 547.847167 881.932443 547.680568 881.530238 547.384062 881.233731 
C 547.087556 880.937225 546.685351 880.770627 546.266028 880.770627 
C 545.846705 880.770627 545.4445 880.937225 545.147994 881.233731 
C 544.851488 881.530238 544.684889 881.932443 544.684889 882.351765 
C 544.684889 882.771088 544.851488 883.173293 545.147994 883.469799 
C 545.4445 883.766306 545.846705 883.932904 546.266028 883.932904 
z
" clip-path="url(#p06859b3f87)" style="fill: #130c07; fill-opacity: 0.6; stroke: #130c07; stroke-opacity: 0.6"/>
    <path d="M 731.32519 682.908158 
C 731.744513 682.908158 732.146718 682.741559 732.443224 682.445053 
C 732.739731 682.148547 732.906329 681.746342 732.906329 681.327019 
C 732.906329 680.907696 732.739731 680.505491 732.443224 680.208985 
C 732.146718 679.912479 731.744513 679.745881 731.32519 679.745881 
C 730.905868 679.745881 730.503663 679.912479 730.207156 680.208985 
C 729.91065 680.505491 729.744052 680.907696 729.744052 681.327019 
C 729.744052 681.746342 729.91065 682.148547 730.207156 682.445053 
C 730.503663 682.741559 730.905868 682.908158 731.32519 682.908158 
z
" clip-path="url(#p06859b3f87)" style="fill: #130c07; fill-opacity: 0.6; stroke: #130c07; stroke-opacity: 0.6"/>
    <path d="M 917.310493 962.012308 
C 919.629239 962.012308 921.853327 961.091061 923.492928 959.45146 
C 925.132529 957.811859 926.053777 955.58777 926.053777 953.269024 
C 926.053777 950.950278 925.132529 948.72619 923.492928 947.086589 
C 921.853327 945.446988 919.629239 944.525741 917.310493 944.525741 
C 914.991747 944.525741 912.767658 945.446988 911.128057 947.086589 
C 909.488456 948.72619 908.567209 950.950278 908.567209 953.269024 
C 908.567209 955.58777 909.488456 957.811859 911.128057 959.45146 
C 912.767658 961.091061 914.991747 962.012308 917.310493 962.012308 
z
" clip-path="url(#p06859b3f87)" style="fill: #825234; fill-opacity: 0.6; stroke: #825234; stroke-opacity: 0.6"/>
    <path d="M 1501.369396 1311.496092 
C 1502.321678 1311.496092 1503.235086 1311.117746 1503.908451 1310.44438 
C 1504.581817 1309.771015 1504.960162 1308.857608 1504.960162 1307.905325 
C 1504.960162 1306.953043 1504.581817 1306.039635 1503.908451 1305.36627 
C 1503.235086 1304.692904 1502.321678 1304.314559 1501.369396 1304.314559 
C 1500.417114 1304.314559 1499.503706 1304.692904 1498.830341 1305.36627 
C 1498.156975 1306.039635 1497.77863 1306.953043 1497.77863 1307.905325 
C 1497.77863 1308.857608 1498.156975 1309.771015 1498.830341 1310.44438 
C 1499.503706 1311.117746 1500.417114 1311.496092 1501.369396 1311.496092 
z
" clip-path="url(#p06859b3f87)" style="fill: #4a2f1e; fill-opacity: 0.6; stroke: #4a2f1e; stroke-opacity: 0.6"/>
    <path d="M 1443.378132 1573.501196 
C 1445.883959 1573.501196 1448.287491 1572.50562 1450.059379 1570.733732 
C 1451.831266 1568.961845 1452.826842 1566.558312 1452.826842 1564.052485 
C 1452.826842 1561.546658 1451.831266 1559.143125 1450.059379 1557.371238 
C 1448.287491 1555.59935 1445.883959 1554.603774 1443.378132 1554.603774 
C 1440.872304 1554.603774 1438.468772 1555.59935 1436.696884 1557.371238 
C 1434.924997 1559.143125 1433.929421 1561.546658 1433.929421 1564.052485 
C 1433.929421 1566.558312 1434.924997 1568.961845 1436.696884 1570.733732 
C 1438.468772 1572.50562 1440.872304 1573.501196 1443.378132 1573.501196 
z
" clip-path="url(#p06859b3f87)" style="fill: #5d3b25; fill-opacity: 0.6; stroke: #5d3b25; stroke-opacity: 0.6"/>
    <path d="M 1226.280548 1143.015919 
C 1228.690847 1143.015919 1231.002751 1142.058297 1232.70709 1140.353959 
C 1234.411429 1138.64962 1235.369051 1136.337716 1235.369051 1133.927417 
C 1235.369051 1131.517118 1234.411429 1129.205214 1232.70709 1127.500875 
C 1231.002751 1125.796536 1228.690847 1124.838914 1226.280548 1124.838914 
C 1223.870249 1124.838914 1221.558345 1125.796536 1219.854006 1127.500875 
C 1218.149667 1129.205214 1217.192045 1131.517118 1217.192045 1133.927417 
C 1217.192045 1136.337716 1218.149667 1138.64962 1219.854006 1140.353959 
C 1221.558345 1142.058297 1223.870249 1143.015919 1226.280548 1143.015919 
z
" clip-path="url(#p06859b3f87)" style="fill: #b9754b; fill-opacity: 0.6; stroke: #b9754b; stroke-opacity: 0.6"/>
    <path d="M 1268.000359 1062.287882 
C 1271.173617 1062.287882 1274.217334 1061.027133 1276.461166 1058.783301 
C 1278.704998 1056.539468 1279.965747 1053.495752 1279.965747 1050.322494 
C 1279.965747 1047.149235 1278.704998 1044.105519 1276.461166 1041.861686 
C 1274.217334 1039.617854 1271.173617 1038.357105 1268.000359 1038.357105 
C 1264.827101 1038.357105 1261.783384 1039.617854 1259.539552 1041.861686 
C 1257.295719 1044.105519 1256.034971 1047.149235 1256.034971 1050.322494 
C 1256.034971 1053.495752 1257.295719 1056.539468 1259.539552 1058.783301 
C 1261.783384 1061.027133 1264.827101 1062.287882 1268.000359 1062.287882 
z
" clip-path="url(#p06859b3f87)" style="fill: #945e3c; fill-opacity: 0.6; stroke: #945e3c; stroke-opacity: 0.6"/>
    <path d="M 1507.582685 528.595893 
C 1508.002008 528.595893 1508.404213 528.429295 1508.700719 528.132789 
C 1508.997225 527.836283 1509.163823 527.434078 1509.163823 527.014755 
C 1509.163823 526.595432 1508.997225 526.193227 1508.700719 525.896721 
C 1508.404213 525.600215 1508.002008 525.433616 1507.582685 525.433616 
C 1507.163362 525.433616 1506.761157 525.600215 1506.464651 525.896721 
C 1506.168145 526.193227 1506.001546 526.595432 1506.001546 527.014755 
C 1506.001546 527.434078 1506.168145 527.836283 1506.464651 528.132789 
C 1506.761157 528.429295 1507.163362 528.595893 1507.582685 528.595893 
z
" clip-path="url(#p06859b3f87)" style="fill: #130c07; fill-opacity: 0.6; stroke: #130c07; stroke-opacity: 0.6"/>
    <path d="M 827.554913 520.885595 
C 827.974236 520.885595 828.376441 520.718996 828.672947 520.42249 
C 828.969453 520.125984 829.136052 519.723779 829.136052 519.304456 
C 829.136052 518.885133 828.969453 518.482928 828.672947 518.186422 
C 828.376441 517.889916 827.974236 517.723317 827.554913 517.723317 
C 827.13559 517.723317 826.733385 517.889916 826.436879 518.186422 
C 826.140373 518.482928 825.973775 518.885133 825.973775 519.304456 
C 825.973775 519.723779 826.140373 520.125984 826.436879 520.42249 
C 826.733385 520.718996 827.13559 520.885595 827.554913 520.885595 
z
" clip-path="url(#p06859b3f87)" style="fill: #130c07; fill-opacity: 0.6; stroke: #130c07; stroke-opacity: 0.6"/>
    <path d="M 1060.483011 1046.953014 
C 1062.342247 1046.953014 1064.125584 1046.214332 1065.440263 1044.899653 
C 1066.754941 1043.584975 1067.493623 1041.801638 1067.493623 1039.942402 
C 1067.493623 1038.083165 1066.754941 1036.299828 1065.440263 1034.98515 
C 1064.125584 1033.670471 1062.342247 1032.931789 1060.483011 1032.931789 
C 1058.623774 1032.931789 1056.840437 1033.670471 1055.525759 1034.98515 
C 1054.21108 1036.299828 1053.472398 1038.083165 1053.472398 1039.942402 
C 1053.472398 1041.801638 1054.21108 1043.584975 1055.525759 1044.899653 
C 1056.840437 1046.214332 1058.623774 1046.953014 1060.483011 1046.953014 
z
" clip-path="url(#p06859b3f87)" style="fill: #825234; fill-opacity: 0.6; stroke: #825234; stroke-opacity: 0.6"/>
    <path d="M 1672.389967 925.812817 
C 1672.80929 925.812817 1673.211495 925.646218 1673.508001 925.349712 
C 1673.804507 925.053206 1673.971106 924.651001 1673.971106 924.231678 
C 1673.971106 923.812355 1673.804507 923.41015 1673.508001 923.113644 
C 1673.211495 922.817138 1672.80929 922.650539 1672.389967 922.650539 
C 1671.970644 922.650539 1671.568439 922.817138 1671.271933 923.113644 
C 1670.975427 923.41015 1670.808828 923.812355 1670.808828 924.231678 
C 1670.808828 924.651001 1670.975427 925.053206 1671.271933 925.349712 
C 1671.568439 925.646218 1671.970644 925.812817 1672.389967 925.812817 
z
" clip-path="url(#p06859b3f87)" style="fill-opacity: 0.6; stroke: #000000; stroke-opacity: 0.6"/>
    <path d="M 1198.994223 602.599284 
C 1199.639267 602.599284 1200.257979 602.343005 1200.714094 601.886891 
C 1201.170209 601.430776 1201.426487 600.812064 1201.426487 600.16702 
C 1201.426487 599.521976 1201.170209 598.903265 1200.714094 598.44715 
C 1200.257979 597.991035 1199.639267 597.734756 1198.994223 597.734756 
C 1198.349179 597.734756 1197.730468 597.991035 1197.274353 598.44715 
C 1196.818238 598.903265 1196.561959 599.521976 1196.561959 600.16702 
C 1196.561959 600.812064 1196.818238 601.430776 1197.274353 601.886891 
C 1197.730468 602.343005 1198.349179 602.599284 1198.994223 602.599284 
z
" clip-path="url(#p06859b3f87)" style="fill: #25170f; fill-opacity: 0.6; stroke: #25170f; stroke-opacity: 0.6"/>
    <path d="M 415.264463 1135.255721 
C 415.683786 1135.255721 416.085991 1135.089123 416.382497 1134.792616 
C 416.679003 1134.49611 416.845602 1134.093905 416.845602 1133.674582 
C 416.845602 1133.25526 416.679003 1132.853055 416.382497 1132.556548 
C 416.085991 1132.260042 415.683786 1132.093444 415.264463 1132.093444 
C 414.84514 1132.093444 414.442935 1132.260042 414.146429 1132.556548 
C 413.849923 1132.853055 413.683324 1133.25526 413.683324 1133.674582 
C 413.683324 1134.093905 413.849923 1134.49611 414.146429 1134.792616 
C 414.442935 1135.089123 414.84514 1135.255721 415.264463 1135.255721 
z
" clip-path="url(#p06859b3f87)" style="fill: #130c07; fill-opacity: 0.6; stroke: #130c07; stroke-opacity: 0.6"/>
    <path d="M 512.07756 758.107694 
C 512.496883 758.107694 512.899088 757.941095 513.195594 757.644589 
C 513.4921 757.348083 513.658699 756.945878 513.658699 756.526555 
C 513.658699 756.107232 513.4921 755.705027 513.195594 755.408521 
C 512.899088 755.112015 512.496883 754.945416 512.07756 754.945416 
C 511.658237 754.945416 511.256032 755.112015 510.959526 755.408521 
C 510.66302 755.705027 510.496421 756.107232 510.496421 756.526555 
C 510.496421 756.945878 510.66302 757.348083 510.959526 757.644589 
C 511.256032 757.941095 511.658237 758.107694 512.07756 758.107694 
z
" clip-path="url(#p06859b3f87)" style="fill: #130c07; fill-opacity: 0.6; stroke: #130c07; stroke-opacity: 0.6"/>
    <path d="M 1188.005516 880.945731 
C 1188.431277 880.945731 1188.839658 880.776574 1189.140717 880.475515 
C 1189.441776 880.174457 1189.610933 879.766076 1189.610933 879.340314 
C 1189.610933 878.914553 1189.441776 878.506172 1189.140717 878.205113 
C 1188.839658 877.904055 1188.431277 877.734898 1188.005516 877.734898 
C 1187.579754 877.734898 1187.171374 877.904055 1186.870315 878.205113 
C 1186.569256 878.506172 1186.400099 878.914553 1186.400099 879.340314 
C 1186.400099 879.766076 1186.569256 880.174457 1186.870315 880.475515 
C 1187.171374 880.776574 1187.579754 880.945731 1188.005516 880.945731 
z
" clip-path="url(#p06859b3f87)" style="fill: #382316; fill-opacity: 0.6; stroke: #382316; stroke-opacity: 0.6"/>
    <path d="M 1005.667965 1753.405189 
C 1006.09839 1753.405189 1006.511244 1753.234179 1006.8156 1752.929823 
C 1007.119957 1752.625466 1007.290967 1752.212612 1007.290967 1751.782187 
C 1007.290967 1751.351762 1007.119957 1750.938908 1006.8156 1750.634551 
C 1006.511244 1750.330195 1006.09839 1750.159185 1005.667965 1750.159185 
C 1005.237539 1750.159185 1004.824685 1750.330195 1004.520329 1750.634551 
C 1004.215972 1750.938908 1004.044962 1751.351762 1004.044962 1751.782187 
C 1004.044962 1752.212612 1004.215972 1752.625466 1004.520329 1752.929823 
C 1004.824685 1753.234179 1005.237539 1753.405189 1005.667965 1753.405189 
z
" clip-path="url(#p06859b3f87)" style="fill: #25170f; fill-opacity: 0.6; stroke: #25170f; stroke-opacity: 0.6"/>
    <path d="M 1560.269494 1541.353331 
C 1560.688817 1541.353331 1561.091021 1541.186732 1561.387528 1540.890226 
C 1561.684034 1540.59372 1561.850632 1540.191515 1561.850632 1539.772192 
C 1561.850632 1539.352869 1561.684034 1538.950664 1561.387528 1538.654158 
C 1561.091021 1538.357652 1560.688817 1538.191053 1560.269494 1538.191053 
C 1559.850171 1538.191053 1559.447966 1538.357652 1559.15146 1538.654158 
C 1558.854954 1538.950664 1558.688355 1539.352869 1558.688355 1539.772192 
C 1558.688355 1540.191515 1558.854954 1540.59372 1559.15146 1540.890226 
C 1559.447966 1541.186732 1559.850171 1541.353331 1560.269494 1541.353331 
z
" clip-path="url(#p06859b3f87)" style="fill: #130c07; fill-opacity: 0.6; stroke: #130c07; stroke-opacity: 0.6"/>
    <path d="M 1002.90456 1215.618133 
C 1004.265815 1215.618133 1005.571499 1215.077301 1006.534051 1214.114749 
C 1007.496603 1213.152197 1008.037435 1211.846513 1008.037435 1210.485259 
C 1008.037435 1209.124005 1007.496603 1207.818321 1006.534051 1206.855769 
C 1005.571499 1205.893217 1004.265815 1205.352385 1002.90456 1205.352385 
C 1001.543306 1205.352385 1000.237622 1205.893217 999.27507 1206.855769 
C 998.312518 1207.818321 997.771686 1209.124005 997.771686 1210.485259 
C 997.771686 1211.846513 998.312518 1213.152197 999.27507 1214.114749 
C 1000.237622 1215.077301 1001.543306 1215.618133 1002.90456 1215.618133 
z
" clip-path="url(#p06859b3f87)" style="fill: #945e3c; fill-opacity: 0.6; stroke: #945e3c; stroke-opacity: 0.6"/>
    <path d="M 475.677146 1251.794869 
C 476.096469 1251.794869 476.498674 1251.628271 476.79518 1251.331764 
C 477.091686 1251.035258 477.258285 1250.633053 477.258285 1250.213731 
C 477.258285 1249.794408 477.091686 1249.392203 476.79518 1249.095697 
C 476.498674 1248.79919 476.096469 1248.632592 475.677146 1248.632592 
C 475.257823 1248.632592 474.855618 1248.79919 474.559112 1249.095697 
C 474.262606 1249.392203 474.096007 1249.794408 474.096007 1250.213731 
C 474.096007 1250.633053 474.262606 1251.035258 474.559112 1251.331764 
C 474.855618 1251.628271 475.257823 1251.794869 475.677146 1251.794869 
z
" clip-path="url(#p06859b3f87)" style="fill: #130c07; fill-opacity: 0.6; stroke: #130c07; stroke-opacity: 0.6"/>
    <path d="M 561.543686 1480.886051 
C 561.963009 1480.886051 562.365214 1480.719452 562.66172 1480.422946 
C 562.958226 1480.12644 563.124825 1479.724235 563.124825 1479.304912 
C 563.124825 1478.885589 562.958226 1478.483384 562.66172 1478.186878 
C 562.365214 1477.890372 561.963009 1477.723773 561.543686 1477.723773 
C 561.124363 1477.723773 560.722158 1477.890372 560.425652 1478.186878 
C 560.129146 1478.483384 559.962547 1478.885589 559.962547 1479.304912 
C 559.962547 1479.724235 560.129146 1480.12644 560.425652 1480.422946 
C 560.722158 1480.719452 561.124363 1480.886051 561.543686 1480.886051 
z
" clip-path="url(#p06859b3f87)" style="fill: #130c07; fill-opacity: 0.6; stroke: #130c07; stroke-opacity: 0.6"/>
    <path d="M 1715.52996 1349.002245 
C 1715.949282 1349.002245 1716.351487 1348.835647 1716.647994 1348.53914 
C 1716.9445 1348.242634 1717.111098 1347.840429 1717.111098 1347.421106 
C 1717.111098 1347.001784 1716.9445 1346.599579 1716.647994 1346.303072 
C 1716.351487 1346.006566 1715.949282 1345.839968 1715.52996 1345.839968 
C 1715.110637 1345.839968 1714.708432 1346.006566 1714.411926 1346.303072 
C 1714.115419 1346.599579 1713.948821 1347.001784 1713.948821 1347.421106 
C 1713.948821 1347.840429 1714.115419 1348.242634 1714.411926 1348.53914 
C 1714.708432 1348.835647 1715.110637 1349.002245 1715.52996 1349.002245 
z
" clip-path="url(#p06859b3f87)" style="fill-opacity: 0.6; stroke: #000000; stroke-opacity: 0.6"/>
    <path d="M 1232.448415 1506.133768 
C 1233.058554 1506.133768 1233.643784 1505.891358 1234.075217 1505.459925 
C 1234.506651 1505.028492 1234.749061 1504.443261 1234.749061 1503.833122 
C 1234.749061 1503.222984 1234.506651 1502.637753 1234.075217 1502.20632 
C 1233.643784 1501.774887 1233.058554 1501.532476 1232.448415 1501.532476 
C 1231.838277 1501.532476 1231.253046 1501.774887 1230.821613 1502.20632 
C 1230.39018 1502.637753 1230.147769 1503.222984 1230.147769 1503.833122 
C 1230.147769 1504.443261 1230.39018 1505.028492 1230.821613 1505.459925 
C 1231.253046 1505.891358 1231.838277 1506.133768 1232.448415 1506.133768 
z
" clip-path="url(#p06859b3f87)" style="fill: #382316; fill-opacity: 0.6; stroke: #382316; stroke-opacity: 0.6"/>
    <path d="M 1325.768966 1619.247656 
C 1326.188336 1619.247656 1326.590587 1619.081039 1326.887126 1618.784499 
C 1327.183665 1618.48796 1327.350283 1618.08571 1327.350283 1617.66634 
C 1327.350283 1617.24697 1327.183665 1616.844719 1326.887126 1616.54818 
C 1326.590587 1616.251641 1326.188336 1616.085023 1325.768966 1616.085023 
C 1325.349596 1616.085023 1324.947346 1616.251641 1324.650807 1616.54818 
C 1324.354267 1616.844719 1324.18765 1617.24697 1324.18765 1617.66634 
C 1324.18765 1618.08571 1324.354267 1618.48796 1324.650807 1618.784499 
C 1324.947346 1619.081039 1325.349596 1619.247656 1325.768966 1619.247656 
z
" clip-path="url(#p06859b3f87)" style="fill: #25170f; fill-opacity: 0.6; stroke: #25170f; stroke-opacity: 0.6"/>
    <path d="M 1141.120532 1779.653866 
C 1141.539855 1779.653866 1141.94206 1779.487267 1142.238566 1779.190761 
C 1142.535072 1778.894255 1142.701671 1778.49205 1142.701671 1778.072727 
C 1142.701671 1777.653404 1142.535072 1777.251199 1142.238566 1776.954693 
C 1141.94206 1776.658187 1141.539855 1776.491588 1141.120532 1776.491588 
C 1140.701209 1776.491588 1140.299004 1776.658187 1140.002498 1776.954693 
C 1139.705992 1777.251199 1139.539393 1777.653404 1139.539393 1778.072727 
C 1139.539393 1778.49205 1139.705992 1778.894255 1140.002498 1779.190761 
C 1140.299004 1779.487267 1140.701209 1779.653866 1141.120532 1779.653866 
z
" clip-path="url(#p06859b3f87)" style="fill: #130c07; fill-opacity: 0.6; stroke: #130c07; stroke-opacity: 0.6"/>
    <path d="M 1747.14651 831.961199 
C 1747.565833 831.961199 1747.968038 831.794601 1748.264544 831.498094 
C 1748.56105 831.201588 1748.727649 830.799383 1748.727649 830.38006 
C 1748.727649 829.960738 1748.56105 829.558533 1748.264544 829.262026 
C 1747.968038 828.96552 1747.565833 828.798922 1747.14651 828.798922 
C 1746.727187 828.798922 1746.324982 828.96552 1746.028476 829.262026 
C 1745.73197 829.558533 1745.565371 829.960738 1745.565371 830.38006 
C 1745.565371 830.799383 1745.73197 831.201588 1746.028476 831.498094 
C 1746.324982 831.794601 1746.727187 831.961199 1747.14651 831.961199 
z
" clip-path="url(#p06859b3f87)" style="fill: #130c07; fill-opacity: 0.6; stroke: #130c07; stroke-opacity: 0.6"/>
    <path d="M 1326.794787 514.610595 
C 1327.21411 514.610595 1327.616315 514.443997 1327.912821 514.147491 
C 1328.209327 513.850984 1328.375926 513.448779 1328.375926 513.029457 
C 1328.375926 512.610134 1328.209327 512.207929 1327.912821 511.911423 
C 1327.616315 511.614916 1327.21411 511.448318 1326.794787 511.448318 
C 1326.375464 511.448318 1325.973259 511.614916 1325.676753 511.911423 
C 1325.380247 512.207929 1325.213648 512.610134 1325.213648 513.029457 
C 1325.213648 513.448779 1325.380247 513.850984 1325.676753 514.147491 
C 1325.973259 514.443997 1326.375464 514.610595 1326.794787 514.610595 
z
" clip-path="url(#p06859b3f87)" style="fill: #130c07; fill-opacity: 0.6; stroke: #130c07; stroke-opacity: 0.6"/>
    <path d="M 985.014314 768.542598 
C 986.19299 768.542598 987.323549 768.074305 988.156998 767.240855 
C 988.990448 766.407406 989.458741 765.276847 989.458741 764.098171 
C 989.458741 762.919495 988.990448 761.788937 988.156998 760.955487 
C 987.323549 760.122037 986.19299 759.653745 985.014314 759.653745 
C 983.835639 759.653745 982.70508 760.122037 981.87163 760.955487 
C 981.038181 761.788937 980.569888 762.919495 980.569888 764.098171 
C 980.569888 765.276847 981.038181 766.407406 981.87163 767.240855 
C 982.70508 768.074305 983.835639 768.542598 985.014314 768.542598 
z
" clip-path="url(#p06859b3f87)" style="fill: #382316; fill-opacity: 0.6; stroke: #382316; stroke-opacity: 0.6"/>
    <path d="M 759.798661 1660.870079 
C 760.217984 1660.870079 760.620189 1660.703481 760.916695 1660.406975 
C 761.213201 1660.110468 761.379799 1659.708263 761.379799 1659.288941 
C 761.379799 1658.869618 761.213201 1658.467413 760.916695 1658.170907 
C 760.620189 1657.874401 760.217984 1657.707802 759.798661 1657.707802 
C 759.379338 1657.707802 758.977133 1657.874401 758.680627 1658.170907 
C 758.384121 1658.467413 758.217522 1658.869618 758.217522 1659.288941 
C 758.217522 1659.708263 758.384121 1660.110468 758.680627 1660.406975 
C 758.977133 1660.703481 759.379338 1660.870079 759.798661 1660.870079 
z
" clip-path="url(#p06859b3f87)" style="fill-opacity: 0.6; stroke: #000000; stroke-opacity: 0.6"/>
    <path d="M 1191.316659 436.110168 
C 1191.735981 436.110168 1192.138186 435.94357 1192.434693 435.647064 
C 1192.731199 435.350558 1192.897797 434.948353 1192.897797 434.52903 
C 1192.897797 434.109707 1192.731199 433.707502 1192.434693 433.410996 
C 1192.138186 433.11449 1191.735981 432.947891 1191.316659 432.947891 
C 1190.897336 432.947891 1190.495131 433.11449 1190.198625 433.410996 
C 1189.902118 433.707502 1189.73552 434.109707 1189.73552 434.52903 
C 1189.73552 434.948353 1189.902118 435.350558 1190.198625 435.647064 
C 1190.495131 435.94357 1190.897336 436.110168 1191.316659 436.110168 
z
" clip-path="url(#p06859b3f87)" style="fill: #25170f; fill-opacity: 0.6; stroke: #25170f; stroke-opacity: 0.6"/>
    <path d="M 881.23989 451.816806 
C 881.659213 451.816806 882.061418 451.650207 882.357924 451.353701 
C 882.65443 451.057195 882.821029 450.65499 882.821029 450.235667 
C 882.821029 449.816344 882.65443 449.414139 882.357924 449.117633 
C 882.061418 448.821127 881.659213 448.654528 881.23989 448.654528 
C 880.820567 448.654528 880.418362 448.821127 880.121856 449.117633 
C 879.82535 449.414139 879.658752 449.816344 879.658752 450.235667 
C 879.658752 450.65499 879.82535 451.057195 880.121856 451.353701 
C 880.418362 451.650207 880.820567 451.816806 881.23989 451.816806 
z
" clip-path="url(#p06859b3f87)" style="fill: #25170f; fill-opacity: 0.6; stroke: #25170f; stroke-opacity: 0.6"/>
    <path d="M 1402.72394 568.606812 
C 1403.143262 568.606812 1403.545467 568.440213 1403.841974 568.143707 
C 1404.13848 567.847201 1404.305078 567.444996 1404.305078 567.025673 
C 1404.305078 566.60635 1404.13848 566.204145 1403.841974 565.907639 
C 1403.545467 565.611133 1403.143262 565.444534 1402.72394 565.444534 
C 1402.304617 565.444534 1401.902412 565.611133 1401.605906 565.907639 
C 1401.309399 566.204145 1401.142801 566.60635 1401.142801 567.025673 
C 1401.142801 567.444996 1401.309399 567.847201 1401.605906 568.143707 
C 1401.902412 568.440213 1402.304617 568.606812 1402.72394 568.606812 
z
" clip-path="url(#p06859b3f87)" style="fill: #25170f; fill-opacity: 0.6; stroke: #25170f; stroke-opacity: 0.6"/>
    <path d="M 1480.833832 517.507872 
C 1481.253155 517.507872 1481.65536 517.341274 1481.951866 517.044768 
C 1482.248372 516.748262 1482.414971 516.346057 1482.414971 515.926734 
C 1482.414971 515.507411 1482.248372 515.105206 1481.951866 514.8087 
C 1481.65536 514.512194 1481.253155 514.345595 1480.833832 514.345595 
C 1480.414509 514.345595 1480.012304 514.512194 1479.715798 514.8087 
C 1479.419292 515.105206 1479.252694 515.507411 1479.252694 515.926734 
C 1479.252694 516.346057 1479.419292 516.748262 1479.715798 517.044768 
C 1480.012304 517.341274 1480.414509 517.507872 1480.833832 517.507872 
z
" clip-path="url(#p06859b3f87)" style="fill: #130c07; fill-opacity: 0.6; stroke: #130c07; stroke-opacity: 0.6"/>
    <path d="M 1468.658585 1318.105401 
C 1469.077908 1318.105401 1469.480113 1317.938802 1469.776619 1317.642296 
C 1470.073125 1317.34579 1470.239724 1316.943585 1470.239724 1316.524262 
C 1470.239724 1316.104939 1470.073125 1315.702734 1469.776619 1315.406228 
C 1469.480113 1315.109722 1469.077908 1314.943123 1468.658585 1314.943123 
C 1468.239262 1314.943123 1467.837057 1315.109722 1467.540551 1315.406228 
C 1467.244045 1315.702734 1467.077446 1316.104939 1467.077446 1316.524262 
C 1467.077446 1316.943585 1467.244045 1317.34579 1467.540551 1317.642296 
C 1467.837057 1317.938802 1468.239262 1318.105401 1468.658585 1318.105401 
z
" clip-path="url(#p06859b3f87)" style="fill: #130c07; fill-opacity: 0.6; stroke: #130c07; stroke-opacity: 0.6"/>
    <path d="M 1369.658628 678.221605 
C 1370.908873 678.221605 1372.108079 677.724878 1372.992135 676.840821 
C 1373.876191 675.956765 1374.372919 674.757559 1374.372919 673.507314 
C 1374.372919 672.25707 1373.876191 671.057864 1372.992135 670.173808 
C 1372.108079 669.289751 1370.908873 668.793024 1369.658628 668.793024 
C 1368.408384 668.793024 1367.209178 669.289751 1366.325121 670.173808 
C 1365.441065 671.057864 1364.944338 672.25707 1364.944338 673.507314 
C 1364.944338 674.757559 1365.441065 675.956765 1366.325121 676.840821 
C 1367.209178 677.724878 1368.408384 678.221605 1369.658628 678.221605 
z
" clip-path="url(#p06859b3f87)" style="fill: #6f462d; fill-opacity: 0.6; stroke: #6f462d; stroke-opacity: 0.6"/>
    <path d="M 1671.268844 765.897001 
C 1671.688167 765.897001 1672.090372 765.730402 1672.386878 765.433896 
C 1672.683384 765.13739 1672.849983 764.735185 1672.849983 764.315862 
C 1672.849983 763.896539 1672.683384 763.494334 1672.386878 763.197828 
C 1672.090372 762.901322 1671.688167 762.734723 1671.268844 762.734723 
C 1670.849521 762.734723 1670.447316 762.901322 1670.15081 763.197828 
C 1669.854304 763.494334 1669.687705 763.896539 1669.687705 764.315862 
C 1669.687705 764.735185 1669.854304 765.13739 1670.15081 765.433896 
C 1670.447316 765.730402 1670.849521 765.897001 1671.268844 765.897001 
z
" clip-path="url(#p06859b3f87)" style="fill: #130c07; fill-opacity: 0.6; stroke: #130c07; stroke-opacity: 0.6"/>
    <path d="M 859.700028 1236.177925 
C 861.043352 1236.177925 862.331838 1235.644217 863.281711 1234.694344 
C 864.231584 1233.744471 864.765292 1232.455985 864.765292 1231.112661 
C 864.765292 1229.769338 864.231584 1228.480852 863.281711 1227.530979 
C 862.331838 1226.581106 861.043352 1226.047397 859.700028 1226.047397 
C 858.356705 1226.047397 857.068219 1226.581106 856.118346 1227.530979 
C 855.168473 1228.480852 854.634764 1229.769338 854.634764 1231.112661 
C 854.634764 1232.455985 855.168473 1233.744471 856.118346 1234.694344 
C 857.068219 1235.644217 858.356705 1236.177925 859.700028 1236.177925 
z
" clip-path="url(#p06859b3f87)" style="fill: #382316; fill-opacity: 0.6; stroke: #382316; stroke-opacity: 0.6"/>
    <path d="M 879.081952 1682.346016 
C 879.501275 1682.346016 879.90348 1682.179417 880.199986 1681.882911 
C 880.496492 1681.586405 880.663091 1681.1842 880.663091 1680.764877 
C 880.663091 1680.345554 880.496492 1679.943349 880.199986 1679.646843 
C 879.90348 1679.350337 879.501275 1679.183738 879.081952 1679.183738 
C 878.662629 1679.183738 878.260424 1679.350337 877.963918 1679.646843 
C 877.667412 1679.943349 877.500813 1680.345554 877.500813 1680.764877 
C 877.500813 1681.1842 877.667412 1681.586405 877.963918 1681.882911 
C 878.260424 1682.179417 878.662629 1682.346016 879.081952 1682.346016 
z
" clip-path="url(#p06859b3f87)" style="fill-opacity: 0.6; stroke: #000000; stroke-opacity: 0.6"/>
    <path d="M 1775.332014 1004.79968 
C 1775.751337 1004.79968 1776.153542 1004.633081 1776.450048 1004.336575 
C 1776.746554 1004.040069 1776.913153 1003.637864 1776.913153 1003.218541 
C 1776.913153 1002.799218 1776.746554 1002.397013 1776.450048 1002.100507 
C 1776.153542 1001.804001 1775.751337 1001.637402 1775.332014 1001.637402 
C 1774.912691 1001.637402 1774.510486 1001.804001 1774.21398 1002.100507 
C 1773.917474 1002.397013 1773.750875 1002.799218 1773.750875 1003.218541 
C 1773.750875 1003.637864 1773.917474 1004.040069 1774.21398 1004.336575 
C 1774.510486 1004.633081 1774.912691 1004.79968 1775.332014 1004.79968 
z
" clip-path="url(#p06859b3f87)" style="fill: #130c07; fill-opacity: 0.6; stroke: #130c07; stroke-opacity: 0.6"/>
    <path d="M 1032.476348 637.766915 
C 1036.273835 637.766915 1039.916299 636.258157 1042.601528 633.572928 
C 1045.286757 630.887698 1046.795515 627.245235 1046.795515 623.447747 
C 1046.795515 619.65026 1045.286757 616.007796 1042.601528 613.322567 
C 1039.916299 610.637338 1036.273835 609.12858 1032.476348 609.12858 
C 1028.67886 609.12858 1025.036397 610.637338 1022.351168 613.322567 
C 1019.665938 616.007796 1018.157181 619.65026 1018.157181 623.447747 
C 1018.157181 627.245235 1019.665938 630.887698 1022.351168 633.572928 
C 1025.036397 636.258157 1028.67886 637.766915 1032.476348 637.766915 
z
" clip-path="url(#p06859b3f87)" style="fill: #382316; fill-opacity: 0.6; stroke: #382316; stroke-opacity: 0.6"/>
    <path d="M 1242.767384 1769.335671 
C 1243.186707 1769.335671 1243.588912 1769.169072 1243.885418 1768.872566 
C 1244.181924 1768.57606 1244.348523 1768.173855 1244.348523 1767.754532 
C 1244.348523 1767.335209 1244.181924 1766.933004 1243.885418 1766.636498 
C 1243.588912 1766.339992 1243.186707 1766.173393 1242.767384 1766.173393 
C 1242.348061 1766.173393 1241.945856 1766.339992 1241.64935 1766.636498 
C 1241.352844 1766.933004 1241.186245 1767.335209 1241.186245 1767.754532 
C 1241.186245 1768.173855 1241.352844 1768.57606 1241.64935 1768.872566 
C 1241.945856 1769.169072 1242.348061 1769.335671 1242.767384 1769.335671 
z
" clip-path="url(#p06859b3f87)" style="fill-opacity: 0.6; stroke: #000000; stroke-opacity: 0.6"/>
    <path d="M 1072.478808 405.108412 
C 1072.898131 405.108412 1073.300336 404.941813 1073.596842 404.645307 
C 1073.893348 404.348801 1074.059947 403.946596 1074.059947 403.527273 
C 1074.059947 403.10795 1073.893348 402.705745 1073.596842 402.409239 
C 1073.300336 402.112733 1072.898131 401.946134 1072.478808 401.946134 
C 1072.059485 401.946134 1071.65728 402.112733 1071.360774 402.409239 
C 1071.064268 402.705745 1070.897669 403.10795 1070.897669 403.527273 
C 1070.897669 403.946596 1071.064268 404.348801 1071.360774 404.645307 
C 1071.65728 404.941813 1072.059485 405.108412 1072.478808 405.108412 
z
" clip-path="url(#p06859b3f87)" style="fill-opacity: 0.6; stroke: #000000; stroke-opacity: 0.6"/>
    <path d="M 806.169223 1730.991375 
C 806.588546 1730.991375 806.99075 1730.824776 807.287257 1730.52827 
C 807.583763 1730.231764 807.750361 1729.829559 807.750361 1729.410236 
C 807.750361 1728.990913 807.583763 1728.588708 807.287257 1728.292202 
C 806.99075 1727.995696 806.588546 1727.829097 806.169223 1727.829097 
C 805.7499 1727.829097 805.347695 1727.995696 805.051189 1728.292202 
C 804.754683 1728.588708 804.588084 1728.990913 804.588084 1729.410236 
C 804.588084 1729.829559 804.754683 1730.231764 805.051189 1730.52827 
C 805.347695 1730.824776 805.7499 1730.991375 806.169223 1730.991375 
z
" clip-path="url(#p06859b3f87)" style="fill-opacity: 0.6; stroke: #000000; stroke-opacity: 0.6"/>
    <path d="M 1798.735537 1291.60795 
C 1799.15486 1291.60795 1799.557065 1291.441351 1799.853571 1291.144845 
C 1800.150077 1290.848339 1800.316676 1290.446134 1800.316676 1290.026811 
C 1800.316676 1289.607488 1800.150077 1289.205283 1799.853571 1288.908777 
C 1799.557065 1288.612271 1799.15486 1288.445672 1798.735537 1288.445672 
C 1798.316214 1288.445672 1797.914009 1288.612271 1797.617503 1288.908777 
C 1797.320997 1289.205283 1797.154398 1289.607488 1797.154398 1290.026811 
C 1797.154398 1290.446134 1797.320997 1290.848339 1797.617503 1291.144845 
C 1797.914009 1291.441351 1798.316214 1291.60795 1798.735537 1291.60795 
z
" clip-path="url(#p06859b3f87)" style="fill-opacity: 0.6; stroke: #000000; stroke-opacity: 0.6"/>
    <path d="M 1575.6902 1621.942919 
C 1576.109522 1621.942919 1576.511727 1621.776321 1576.808233 1621.479815 
C 1577.10474 1621.183309 1577.271338 1620.781104 1577.271338 1620.361781 
C 1577.271338 1619.942458 1577.10474 1619.540253 1576.808233 1619.243747 
C 1576.511727 1618.947241 1576.109522 1618.780642 1575.6902 1618.780642 
C 1575.270877 1618.780642 1574.868672 1618.947241 1574.572166 1619.243747 
C 1574.275659 1619.540253 1574.109061 1619.942458 1574.109061 1620.361781 
C 1574.109061 1620.781104 1574.275659 1621.183309 1574.572166 1621.479815 
C 1574.868672 1621.776321 1575.270877 1621.942919 1575.6902 1621.942919 
z
" clip-path="url(#p06859b3f87)" style="fill: #130c07; fill-opacity: 0.6; stroke: #130c07; stroke-opacity: 0.6"/>
    <path d="M 804.69971 1612.675379 
C 805.119033 1612.675379 805.521238 1612.50878 805.817744 1612.212274 
C 806.11425 1611.915768 806.280849 1611.513563 806.280849 1611.09424 
C 806.280849 1610.674917 806.11425 1610.272712 805.817744 1609.976206 
C 805.521238 1609.6797 805.119033 1609.513101 804.69971 1609.513101 
C 804.280387 1609.513101 803.878182 1609.6797 803.581676 1609.976206 
C 803.28517 1610.272712 803.118571 1610.674917 803.118571 1611.09424 
C 803.118571 1611.513563 803.28517 1611.915768 803.581676 1612.212274 
C 803.878182 1612.50878 804.280387 1612.675379 804.69971 1612.675379 
z
" clip-path="url(#p06859b3f87)" style="fill: #130c07; fill-opacity: 0.6; stroke: #130c07; stroke-opacity: 0.6"/>
    <path d="M 747.013316 942.772748 
C 747.432639 942.772748 747.834844 942.60615 748.13135 942.309643 
C 748.427856 942.013137 748.594455 941.610932 748.594455 941.191609 
C 748.594455 940.772287 748.427856 940.370082 748.13135 940.073575 
C 747.834844 939.777069 747.432639 939.610471 747.013316 939.610471 
C 746.593993 939.610471 746.191788 939.777069 745.895282 940.073575 
C 745.598776 940.370082 745.432177 940.772287 745.432177 941.191609 
C 745.432177 941.610932 745.598776 942.013137 745.895282 942.309643 
C 746.191788 942.60615 746.593993 942.772748 747.013316 942.772748 
z
" clip-path="url(#p06859b3f87)" style="fill: #130c07; fill-opacity: 0.6; stroke: #130c07; stroke-opacity: 0.6"/>
    <path d="M 1085.362655 1530.517783 
C 1085.781978 1530.517783 1086.184183 1530.351184 1086.480689 1530.054678 
C 1086.777196 1529.758172 1086.943794 1529.355967 1086.943794 1528.936644 
C 1086.943794 1528.517321 1086.777196 1528.115116 1086.480689 1527.81861 
C 1086.184183 1527.522104 1085.781978 1527.355505 1085.362655 1527.355505 
C 1084.943333 1527.355505 1084.541128 1527.522104 1084.244622 1527.81861 
C 1083.948115 1528.115116 1083.781517 1528.517321 1083.781517 1528.936644 
C 1083.781517 1529.355967 1083.948115 1529.758172 1084.244622 1530.054678 
C 1084.541128 1530.351184 1084.943333 1530.517783 1085.362655 1530.517783 
z
" clip-path="url(#p06859b3f87)" style="fill: #130c07; fill-opacity: 0.6; stroke: #130c07; stroke-opacity: 0.6"/>
    <path d="M 759.950207 1076.061891 
C 760.372215 1076.061891 760.776994 1075.894226 761.075399 1075.595822 
C 761.373803 1075.297417 761.541468 1074.892637 761.541468 1074.47063 
C 761.541468 1074.048622 761.373803 1073.643843 761.075399 1073.345438 
C 760.776994 1073.047034 760.372215 1072.879369 759.950207 1072.879369 
C 759.5282 1072.879369 759.12342 1073.047034 758.825015 1073.345438 
C 758.526611 1073.643843 758.358946 1074.048622 758.358946 1074.47063 
C 758.358946 1074.892637 758.526611 1075.297417 758.825015 1075.595822 
C 759.12342 1075.894226 759.5282 1076.061891 759.950207 1076.061891 
z
" clip-path="url(#p06859b3f87)" style="fill: #4a2f1e; fill-opacity: 0.6; stroke: #4a2f1e; stroke-opacity: 0.6"/>
    <path d="M 1177.469433 1197.015862 
C 1177.89144 1197.015862 1178.29622 1196.848197 1178.594625 1196.549793 
C 1178.893029 1196.251388 1179.060694 1195.846608 1179.060694 1195.424601 
C 1179.060694 1195.002594 1178.893029 1194.597814 1178.594625 1194.299409 
C 1178.29622 1194.001005 1177.89144 1193.83334 1177.469433 1193.83334 
C 1177.047425 1193.83334 1176.642646 1194.001005 1176.344241 1194.299409 
C 1176.045837 1194.597814 1175.878172 1195.002594 1175.878172 1195.424601 
C 1175.878172 1195.846608 1176.045837 1196.251388 1176.344241 1196.549793 
C 1176.642646 1196.848197 1177.047425 1197.015862 1177.469433 1197.015862 
z
" clip-path="url(#p06859b3f87)" style="fill: #4a2f1e; fill-opacity: 0.6; stroke: #4a2f1e; stroke-opacity: 0.6"/>
    <path d="M 573.4883 1139.931313 
C 573.907623 1139.931313 574.309828 1139.764714 574.606334 1139.468208 
C 574.90284 1139.171702 575.069439 1138.769497 575.069439 1138.350174 
C 575.069439 1137.930851 574.90284 1137.528646 574.606334 1137.23214 
C 574.309828 1136.935634 573.907623 1136.769035 573.4883 1136.769035 
C 573.068977 1136.769035 572.666772 1136.935634 572.370266 1137.23214 
C 572.07376 1137.528646 571.907161 1137.930851 571.907161 1138.350174 
C 571.907161 1138.769497 572.07376 1139.171702 572.370266 1139.468208 
C 572.666772 1139.764714 573.068977 1139.931313 573.4883 1139.931313 
z
" clip-path="url(#p06859b3f87)" style="fill: #25170f; fill-opacity: 0.6; stroke: #25170f; stroke-opacity: 0.6"/>
    <path d="M 1032.604797 1751.925339 
C 1033.02412 1751.925339 1033.426325 1751.758741 1033.722831 1751.462235 
C 1034.019338 1751.165729 1034.185936 1750.763524 1034.185936 1750.344201 
C 1034.185936 1749.924878 1034.019338 1749.522673 1033.722831 1749.226167 
C 1033.426325 1748.929661 1033.02412 1748.763062 1032.604797 1748.763062 
C 1032.185475 1748.763062 1031.78327 1748.929661 1031.486763 1749.226167 
C 1031.190257 1749.522673 1031.023659 1749.924878 1031.023659 1750.344201 
C 1031.023659 1750.763524 1031.190257 1751.165729 1031.486763 1751.462235 
C 1031.78327 1751.758741 1032.185475 1751.925339 1032.604797 1751.925339 
z
" clip-path="url(#p06859b3f87)" style="fill-opacity: 0.6; stroke: #000000; stroke-opacity: 0.6"/>
    <path d="M 1516.241242 1650.193008 
C 1516.660565 1650.193008 1517.06277 1650.026409 1517.359276 1649.729903 
C 1517.655782 1649.433397 1517.822381 1649.031192 1517.822381 1648.611869 
C 1517.822381 1648.192546 1517.655782 1647.790341 1517.359276 1647.493835 
C 1517.06277 1647.197329 1516.660565 1647.03073 1516.241242 1647.03073 
C 1515.821919 1647.03073 1515.419714 1647.197329 1515.123208 1647.493835 
C 1514.826702 1647.790341 1514.660103 1648.192546 1514.660103 1648.611869 
C 1514.660103 1649.031192 1514.826702 1649.433397 1515.123208 1649.729903 
C 1515.419714 1650.026409 1515.821919 1650.193008 1516.241242 1650.193008 
z
" clip-path="url(#p06859b3f87)" style="fill-opacity: 0.6; stroke: #000000; stroke-opacity: 0.6"/>
    <path d="M 499.641097 868.087116 
C 500.06042 868.087116 500.462625 867.920518 500.759131 867.624011 
C 501.055637 867.327505 501.222236 866.9253 501.222236 866.505977 
C 501.222236 866.086655 501.055637 865.68445 500.759131 865.387944 
C 500.462625 865.091437 500.06042 864.924839 499.641097 864.924839 
C 499.221774 864.924839 498.819569 865.091437 498.523063 865.387944 
C 498.226557 865.68445 498.059958 866.086655 498.059958 866.505977 
C 498.059958 866.9253 498.226557 867.327505 498.523063 867.624011 
C 498.819569 867.920518 499.221774 868.087116 499.641097 868.087116 
z
" clip-path="url(#p06859b3f87)" style="fill: #130c07; fill-opacity: 0.6; stroke: #130c07; stroke-opacity: 0.6"/>
    <path d="M 531.489016 1332.60239 
C 531.908339 1332.60239 532.310544 1332.435792 532.60705 1332.139285 
C 532.903556 1331.842779 533.070155 1331.440574 533.070155 1331.021252 
C 533.070155 1330.601929 532.903556 1330.199724 532.60705 1329.903218 
C 532.310544 1329.606711 531.908339 1329.440113 531.489016 1329.440113 
C 531.069693 1329.440113 530.667488 1329.606711 530.370982 1329.903218 
C 530.074476 1330.199724 529.907877 1330.601929 529.907877 1331.021252 
C 529.907877 1331.440574 530.074476 1331.842779 530.370982 1332.139285 
C 530.667488 1332.435792 531.069693 1332.60239 531.489016 1332.60239 
z
" clip-path="url(#p06859b3f87)" style="fill: #130c07; fill-opacity: 0.6; stroke: #130c07; stroke-opacity: 0.6"/>
    <path d="M 1744.40783 966.874821 
C 1744.827153 966.874821 1745.229358 966.708222 1745.525864 966.411716 
C 1745.82237 966.11521 1745.988969 965.713005 1745.988969 965.293682 
C 1745.988969 964.874359 1745.82237 964.472154 1745.525864 964.175648 
C 1745.229358 963.879142 1744.827153 963.712543 1744.40783 963.712543 
C 1743.988508 963.712543 1743.586303 963.879142 1743.289796 964.175648 
C 1742.99329 964.472154 1742.826692 964.874359 1742.826692 965.293682 
C 1742.826692 965.713005 1742.99329 966.11521 1743.289796 966.411716 
C 1743.586303 966.708222 1743.988508 966.874821 1744.40783 966.874821 
z
" clip-path="url(#p06859b3f87)" style="fill: #130c07; fill-opacity: 0.6; stroke: #130c07; stroke-opacity: 0.6"/>
    <path d="M 1093.42329 1652.47074 
C 1093.842613 1652.47074 1094.244818 1652.304141 1094.541324 1652.007635 
C 1094.83783 1651.711129 1095.004429 1651.308924 1095.004429 1650.889601 
C 1095.004429 1650.470278 1094.83783 1650.068073 1094.541324 1649.771567 
C 1094.244818 1649.475061 1093.842613 1649.308462 1093.42329 1649.308462 
C 1093.003967 1649.308462 1092.601762 1649.475061 1092.305256 1649.771567 
C 1092.00875 1650.068073 1091.842151 1650.470278 1091.842151 1650.889601 
C 1091.842151 1651.308924 1092.00875 1651.711129 1092.305256 1652.007635 
C 1092.601762 1652.304141 1093.003967 1652.47074 1093.42329 1652.47074 
z
" clip-path="url(#p06859b3f87)" style="fill: #130c07; fill-opacity: 0.6; stroke: #130c07; stroke-opacity: 0.6"/>
    <path d="M 1549.328318 533.034698 
C 1549.747641 533.034698 1550.149846 532.868099 1550.446352 532.571593 
C 1550.742858 532.275087 1550.909457 531.872882 1550.909457 531.453559 
C 1550.909457 531.034236 1550.742858 530.632031 1550.446352 530.335525 
C 1550.149846 530.039019 1549.747641 529.87242 1549.328318 529.87242 
C 1548.908995 529.87242 1548.50679 530.039019 1548.210284 530.335525 
C 1547.913778 530.632031 1547.747179 531.034236 1547.747179 531.453559 
C 1547.747179 531.872882 1547.913778 532.275087 1548.210284 532.571593 
C 1548.50679 532.868099 1548.908995 533.034698 1549.328318 533.034698 
z
" clip-path="url(#p06859b3f87)" style="fill: #130c07; fill-opacity: 0.6; stroke: #130c07; stroke-opacity: 0.6"/>
    <path d="M 634.297823 601.453577 
C 634.717146 601.453577 635.119351 601.286978 635.415857 600.990472 
C 635.712363 600.693966 635.878962 600.291761 635.878962 599.872438 
C 635.878962 599.453115 635.712363 599.05091 635.415857 598.754404 
C 635.119351 598.457898 634.717146 598.291299 634.297823 598.291299 
C 633.8785 598.291299 633.476295 598.457898 633.179789 598.754404 
C 632.883283 599.05091 632.716684 599.453115 632.716684 599.872438 
C 632.716684 600.291761 632.883283 600.693966 633.179789 600.990472 
C 633.476295 601.286978 633.8785 601.453577 634.297823 601.453577 
z
" clip-path="url(#p06859b3f87)" style="fill: #130c07; fill-opacity: 0.6; stroke: #130c07; stroke-opacity: 0.6"/>
    <path d="M 662.49896 1208.914826 
C 662.918283 1208.914826 663.320488 1208.748227 663.616994 1208.451721 
C 663.9135 1208.155215 664.080099 1207.75301 664.080099 1207.333687 
C 664.080099 1206.914364 663.9135 1206.512159 663.616994 1206.215653 
C 663.320488 1205.919147 662.918283 1205.752548 662.49896 1205.752548 
C 662.079637 1205.752548 661.677432 1205.919147 661.380926 1206.215653 
C 661.08442 1206.512159 660.917821 1206.914364 660.917821 1207.333687 
C 660.917821 1207.75301 661.08442 1208.155215 661.380926 1208.451721 
C 661.677432 1208.748227 662.079637 1208.914826 662.49896 1208.914826 
z
" clip-path="url(#p06859b3f87)" style="fill: #25170f; fill-opacity: 0.6; stroke: #25170f; stroke-opacity: 0.6"/>
    <path d="M 681.92118 597.957897 
C 682.340503 597.957897 682.742708 597.791298 683.039214 597.494792 
C 683.33572 597.198286 683.502319 596.796081 683.502319 596.376758 
C 683.502319 595.957435 683.33572 595.55523 683.039214 595.258724 
C 682.742708 594.962218 682.340503 594.795619 681.92118 594.795619 
C 681.501857 594.795619 681.099652 594.962218 680.803146 595.258724 
C 680.50664 595.55523 680.340041 595.957435 680.340041 596.376758 
C 680.340041 596.796081 680.50664 597.198286 680.803146 597.494792 
C 681.099652 597.791298 681.501857 597.957897 681.92118 597.957897 
z
" clip-path="url(#p06859b3f87)" style="fill: #130c07; fill-opacity: 0.6; stroke: #130c07; stroke-opacity: 0.6"/>
    <path d="M 953.921299 440.798488 
C 954.340622 440.798488 954.742827 440.631889 955.039333 440.335383 
C 955.335839 440.038877 955.502438 439.636672 955.502438 439.217349 
C 955.502438 438.798026 955.335839 438.395821 955.039333 438.099315 
C 954.742827 437.802809 954.340622 437.63621 953.921299 437.63621 
C 953.501976 437.63621 953.099771 437.802809 952.803265 438.099315 
C 952.506759 438.395821 952.34016 438.798026 952.34016 439.217349 
C 952.34016 439.636672 952.506759 440.038877 952.803265 440.335383 
C 953.099771 440.631889 953.501976 440.798488 953.921299 440.798488 
z
" clip-path="url(#p06859b3f87)" style="fill: #130c07; fill-opacity: 0.6; stroke: #130c07; stroke-opacity: 0.6"/>
   </g>
   <g id="patch_3">
    <path d="M 270 1922.4 
L 270 259.2 
" style="fill: none; stroke: #ffffff; stroke-width: 1.25; stroke-linejoin: miter; stroke-linecap: square"/>
   </g>
   <g id="patch_4">
    <path d="M 1944 1922.4 
L 1944 259.2 
" style="fill: none; stroke: #ffffff; stroke-width: 1.25; stroke-linejoin: miter; stroke-linecap: square"/>
   </g>
   <g id="patch_5">
    <path d="M 270 1922.4 
L 1944 1922.4 
" style="fill: none; stroke: #ffffff; stroke-width: 1.25; stroke-linejoin: miter; stroke-linecap: square"/>
   </g>
   <g id="patch_6">
    <path d="M 270 259.2 
L 1944 259.2 
" style="fill: none; stroke: #ffffff; stroke-width: 1.25; stroke-linejoin: miter; stroke-linecap: square"/>
   </g>
  </g>
 </g>
 <defs>
  <clipPath id="p06859b3f87">
   <rect x="270" y="259.2" width="1674" height="1663.2"/>
  </clipPath>
 </defs>
</svg>
