<?xml version="1.0" encoding="utf-8" standalone="no"?>
<!DOCTYPE svg PUBLIC "-//W3C//DTD SVG 1.1//EN"
  "http://www.w3.org/Graphics/SVG/1.1/DTD/svg11.dtd">
<svg xmlns:xlink="http://www.w3.org/1999/xlink" width="2160pt" height="2160pt" viewBox="0 0 2160 2160" xmlns="http://www.w3.org/2000/svg" version="1.1">
 <metadata>
  <rdf:RDF xmlns:dc="http://purl.org/dc/elements/1.1/" xmlns:cc="http://creativecommons.org/ns#" xmlns:rdf="http://www.w3.org/1999/02/22-rdf-syntax-ns#">
   <cc:Work>
    <dc:type rdf:resource="http://purl.org/dc/dcmitype/StillImage"/>
    <dc:date>2023-06-11T18:19:51.628334</dc:date>
    <dc:format>image/svg+xml</dc:format>
    <dc:creator>
     <cc:Agent>
      <dc:title>Matplotlib v3.7.1, https://matplotlib.org/</dc:title>
     </cc:Agent>
    </dc:creator>
   </cc:Work>
  </rdf:RDF>
 </metadata>
 <defs>
  <style type="text/css">*{stroke-linejoin: round; stroke-linecap: butt}</style>
 </defs>
 <g id="figure_1">
  <g id="patch_1">
   <path d="M 0 2160 
L 2160 2160 
L 2160 0 
L 0 0 
z
" style="fill: #ffffff"/>
  </g>
  <g id="axes_1">
   <g id="patch_2">
    <path d="M 270 1922.4 
L 1944 1922.4 
L 1944 259.2 
L 270 259.2 
z
" style="fill: #eaeaf2"/>
   </g>
   <g id="matplotlib.axis_1">
    <g id="xtick_1">
     <g id="line2d_1">
      <path d="M 370.990144 1922.4 
L 370.990144 259.2 
" clip-path="url(#p13f95c63fc)" style="fill: none; stroke: #ffffff; stroke-linecap: round"/>
     </g>
    </g>
    <g id="xtick_2">
     <g id="line2d_2">
      <path d="M 730.483852 1922.4 
L 730.483852 259.2 
" clip-path="url(#p13f95c63fc)" style="fill: none; stroke: #ffffff; stroke-linecap: round"/>
     </g>
    </g>
    <g id="xtick_3">
     <g id="line2d_3">
      <path d="M 1089.977559 1922.4 
L 1089.977559 259.2 
" clip-path="url(#p13f95c63fc)" style="fill: none; stroke: #ffffff; stroke-linecap: round"/>
     </g>
    </g>
    <g id="xtick_4">
     <g id="line2d_4">
      <path d="M 1449.471267 1922.4 
L 1449.471267 259.2 
" clip-path="url(#p13f95c63fc)" style="fill: none; stroke: #ffffff; stroke-linecap: round"/>
     </g>
    </g>
    <g id="xtick_5">
     <g id="line2d_5">
      <path d="M 1808.964975 1922.4 
L 1808.964975 259.2 
" clip-path="url(#p13f95c63fc)" style="fill: none; stroke: #ffffff; stroke-linecap: round"/>
     </g>
    </g>
   </g>
   <g id="matplotlib.axis_2">
    <g id="ytick_1">
     <g id="line2d_6">
      <path d="M 270 1778.072727 
L 1944 1778.072727 
" clip-path="url(#p13f95c63fc)" style="fill: none; stroke: #ffffff; stroke-linecap: round"/>
     </g>
    </g>
    <g id="ytick_2">
     <g id="line2d_7">
      <path d="M 270 1419.264761 
L 1944 1419.264761 
" clip-path="url(#p13f95c63fc)" style="fill: none; stroke: #ffffff; stroke-linecap: round"/>
     </g>
    </g>
    <g id="ytick_3">
     <g id="line2d_8">
      <path d="M 270 1060.456794 
L 1944 1060.456794 
" clip-path="url(#p13f95c63fc)" style="fill: none; stroke: #ffffff; stroke-linecap: round"/>
     </g>
    </g>
    <g id="ytick_4">
     <g id="line2d_9">
      <path d="M 270 701.648828 
L 1944 701.648828 
" clip-path="url(#p13f95c63fc)" style="fill: none; stroke: #ffffff; stroke-linecap: round"/>
     </g>
    </g>
    <g id="ytick_5">
     <g id="line2d_10">
      <path d="M 270 342.840861 
L 1944 342.840861 
" clip-path="url(#p13f95c63fc)" style="fill: none; stroke: #ffffff; stroke-linecap: round"/>
     </g>
    </g>
   </g>
   <g id="LineCollection_1">
    <path d="M 1367.741236 1043.644548 
L 1541.841462 693.68127 
" clip-path="url(#p13f95c63fc)" style="fill: none; stroke: #1a1a1a; stroke-opacity: 0.05"/>
    <path d="M 1367.741236 1043.644548 
L 1324.023021 468.008732 
" clip-path="url(#p13f95c63fc)" style="fill: none; stroke: #1a1a1a; stroke-opacity: 0.05"/>
    <path d="M 1367.741236 1043.644548 
L 1128.259616 796.909491 
" clip-path="url(#p13f95c63fc)" style="fill: none; stroke: #1a1a1a; stroke-opacity: 0.05"/>
    <path d="M 1367.741236 1043.644548 
L 1021.310294 1635.406827 
" clip-path="url(#p13f95c63fc)" style="fill: none; stroke: #1a1a1a; stroke-opacity: 0.05"/>
    <path d="M 1367.741236 1043.644548 
L 998.409839 1060.323722 
" clip-path="url(#p13f95c63fc)" style="fill: none; stroke: #1a1a1a; stroke-opacity: 0.05"/>
    <path d="M 1367.741236 1043.644548 
L 1353.765377 1281.985093 
" clip-path="url(#p13f95c63fc)" style="fill: none; stroke: #1a1a1a; stroke-opacity: 0.05"/>
    <path d="M 1367.741236 1043.644548 
L 964.661283 1255.38667 
" clip-path="url(#p13f95c63fc)" style="fill: none; stroke: #1a1a1a; stroke-opacity: 0.05"/>
    <path d="M 1367.741236 1043.644548 
L 1677.08483 696.52119 
" clip-path="url(#p13f95c63fc)" style="fill: none; stroke: #1a1a1a; stroke-opacity: 0.05"/>
    <path d="M 1541.841462 693.68127 
L 1324.023021 468.008732 
" clip-path="url(#p13f95c63fc)" style="fill: none; stroke: #1a1a1a; stroke-opacity: 0.05"/>
    <path d="M 1798.735537 1006.461717 
L 1235.87571 1073.115903 
" clip-path="url(#p13f95c63fc)" style="fill: none; stroke: #1a1a1a; stroke-opacity: 0.05"/>
    <path d="M 1798.735537 1006.461717 
L 1687.249153 823.626196 
" clip-path="url(#p13f95c63fc)" style="fill: none; stroke: #1a1a1a; stroke-opacity: 0.05"/>
    <path d="M 1235.87571 1073.115903 
L 1687.249153 823.626196 
" clip-path="url(#p13f95c63fc)" style="fill: none; stroke: #1a1a1a; stroke-opacity: 0.05"/>
    <path d="M 1235.87571 1073.115903 
L 716.992193 1371.424503 
" clip-path="url(#p13f95c63fc)" style="fill: none; stroke: #1a1a1a; stroke-opacity: 0.05"/>
    <path d="M 1235.87571 1073.115903 
L 1400.600198 1472.661015 
" clip-path="url(#p13f95c63fc)" style="fill: none; stroke: #1a1a1a; stroke-opacity: 0.05"/>
    <path d="M 1235.87571 1073.115903 
L 1337.319334 455.283841 
" clip-path="url(#p13f95c63fc)" style="fill: none; stroke: #1a1a1a; stroke-opacity: 0.05"/>
    <path d="M 1235.87571 1073.115903 
L 1048.26218 680.67785 
" clip-path="url(#p13f95c63fc)" style="fill: none; stroke: #1a1a1a; stroke-opacity: 0.05"/>
    <path d="M 1235.87571 1073.115903 
L 1771.635808 1155.895525 
" clip-path="url(#p13f95c63fc)" style="fill: none; stroke: #1a1a1a; stroke-opacity: 0.05"/>
    <path d="M 1235.87571 1073.115903 
L 483.362045 861.784696 
" clip-path="url(#p13f95c63fc)" style="fill: none; stroke: #1a1a1a; stroke-opacity: 0.05"/>
    <path d="M 1235.87571 1073.115903 
L 1157.486041 1422.310213 
" clip-path="url(#p13f95c63fc)" style="fill: none; stroke: #1a1a1a; stroke-opacity: 0.05"/>
    <path d="M 1235.87571 1073.115903 
L 680.896284 1594.721063 
" clip-path="url(#p13f95c63fc)" style="fill: none; stroke: #1a1a1a; stroke-opacity: 0.05"/>
    <path d="M 1235.87571 1073.115903 
L 1342.733266 1676.816441 
" clip-path="url(#p13f95c63fc)" style="fill: none; stroke: #1a1a1a; stroke-opacity: 0.05"/>
    <path d="M 1235.87571 1073.115903 
L 1512.744347 763.428785 
" clip-path="url(#p13f95c63fc)" style="fill: none; stroke: #1a1a1a; stroke-opacity: 0.05"/>
    <path d="M 1235.87571 1073.115903 
L 1076.007526 537.499326 
" clip-path="url(#p13f95c63fc)" style="fill: none; stroke: #1a1a1a; stroke-opacity: 0.05"/>
    <path d="M 1128.259616 796.909491 
L 998.409839 1060.323722 
" clip-path="url(#p13f95c63fc)" style="fill: none; stroke: #1a1a1a; stroke-opacity: 0.05"/>
    <path d="M 1128.259616 796.909491 
L 1353.765377 1281.985093 
" clip-path="url(#p13f95c63fc)" style="fill: none; stroke: #1a1a1a; stroke-opacity: 0.05"/>
    <path d="M 1128.259616 796.909491 
L 500.393917 958.696637 
" clip-path="url(#p13f95c63fc)" style="fill: none; stroke: #1a1a1a; stroke-opacity: 0.05"/>
    <path d="M 1128.259616 796.909491 
L 714.276715 503.355083 
" clip-path="url(#p13f95c63fc)" style="fill: none; stroke: #1a1a1a; stroke-opacity: 0.05"/>
    <path d="M 998.409839 1060.323722 
L 1021.310294 1635.406827 
" clip-path="url(#p13f95c63fc)" style="fill: none; stroke: #1a1a1a; stroke-opacity: 0.05"/>
    <path d="M 998.409839 1060.323722 
L 1353.765377 1281.985093 
" clip-path="url(#p13f95c63fc)" style="fill: none; stroke: #1a1a1a; stroke-opacity: 0.05"/>
    <path d="M 998.409839 1060.323722 
L 1280.192805 621.652618 
" clip-path="url(#p13f95c63fc)" style="fill: none; stroke: #1a1a1a; stroke-opacity: 0.05"/>
    <path d="M 998.409839 1060.323722 
L 1201.677672 452.779905 
" clip-path="url(#p13f95c63fc)" style="fill: none; stroke: #1a1a1a; stroke-opacity: 0.05"/>
    <path d="M 998.409839 1060.323722 
L 1744.708197 736.5316 
" clip-path="url(#p13f95c63fc)" style="fill: none; stroke: #1a1a1a; stroke-opacity: 0.05"/>
    <path d="M 998.409839 1060.323722 
L 523.071519 1298.059095 
" clip-path="url(#p13f95c63fc)" style="fill: none; stroke: #1a1a1a; stroke-opacity: 0.05"/>
    <path d="M 998.409839 1060.323722 
L 768.67467 1703.873527 
" clip-path="url(#p13f95c63fc)" style="fill: none; stroke: #1a1a1a; stroke-opacity: 0.05"/>
    <path d="M 998.409839 1060.323722 
L 1068.909322 1578.947297 
" clip-path="url(#p13f95c63fc)" style="fill: none; stroke: #1a1a1a; stroke-opacity: 0.05"/>
    <path d="M 998.409839 1060.323722 
L 867.29612 939.693137 
" clip-path="url(#p13f95c63fc)" style="fill: none; stroke: #1a1a1a; stroke-opacity: 0.05"/>
    <path d="M 998.409839 1060.323722 
L 720.337983 958.102685 
" clip-path="url(#p13f95c63fc)" style="fill: none; stroke: #1a1a1a; stroke-opacity: 0.05"/>
    <path d="M 998.409839 1060.323722 
L 932.195626 1381.181195 
" clip-path="url(#p13f95c63fc)" style="fill: none; stroke: #1a1a1a; stroke-opacity: 0.05"/>
    <path d="M 998.409839 1060.323722 
L 524.01799 798.955637 
" clip-path="url(#p13f95c63fc)" style="fill: none; stroke: #1a1a1a; stroke-opacity: 0.05"/>
    <path d="M 998.409839 1060.323722 
L 770.184202 1381.931176 
" clip-path="url(#p13f95c63fc)" style="fill: none; stroke: #1a1a1a; stroke-opacity: 0.05"/>
    <path d="M 998.409839 1060.323722 
L 437.962862 1288.122977 
" clip-path="url(#p13f95c63fc)" style="fill: none; stroke: #1a1a1a; stroke-opacity: 0.05"/>
    <path d="M 998.409839 1060.323722 
L 1527.32464 584.412731 
" clip-path="url(#p13f95c63fc)" style="fill: none; stroke: #1a1a1a; stroke-opacity: 0.05"/>
    <path d="M 998.409839 1060.323722 
L 483.362045 861.784696 
" clip-path="url(#p13f95c63fc)" style="fill: none; stroke: #1a1a1a; stroke-opacity: 0.05"/>
    <path d="M 1353.765377 1281.985093 
L 1021.310294 1635.406827 
" clip-path="url(#p13f95c63fc)" style="fill: none; stroke: #1a1a1a; stroke-opacity: 0.05"/>
    <path d="M 1353.765377 1281.985093 
L 1269.869739 1617.305442 
" clip-path="url(#p13f95c63fc)" style="fill: none; stroke: #1a1a1a; stroke-opacity: 0.05"/>
    <path d="M 1353.765377 1281.985093 
L 1030.529595 829.344026 
" clip-path="url(#p13f95c63fc)" style="fill: none; stroke: #1a1a1a; stroke-opacity: 0.05"/>
    <path d="M 1353.765377 1281.985093 
L 1779.988336 910.101158 
" clip-path="url(#p13f95c63fc)" style="fill: none; stroke: #1a1a1a; stroke-opacity: 0.05"/>
    <path d="M 1353.765377 1281.985093 
L 1787.445855 1106.723411 
" clip-path="url(#p13f95c63fc)" style="fill: none; stroke: #1a1a1a; stroke-opacity: 0.05"/>
    <path d="M 1353.765377 1281.985093 
L 783.07266 1664.452249 
" clip-path="url(#p13f95c63fc)" style="fill: none; stroke: #1a1a1a; stroke-opacity: 0.05"/>
    <path d="M 1353.765377 1281.985093 
L 1481.363245 1573.67535 
" clip-path="url(#p13f95c63fc)" style="fill: none; stroke: #1a1a1a; stroke-opacity: 0.05"/>
    <path d="M 1718.584127 1476.608572 
L 1438.769175 1734.677129 
" clip-path="url(#p13f95c63fc)" style="fill: none; stroke: #1a1a1a; stroke-opacity: 0.05"/>
    <path d="M 1718.584127 1476.608572 
L 1157.486041 1422.310213 
" clip-path="url(#p13f95c63fc)" style="fill: none; stroke: #1a1a1a; stroke-opacity: 0.05"/>
    <path d="M 1438.769175 1734.677129 
L 1157.486041 1422.310213 
" clip-path="url(#p13f95c63fc)" style="fill: none; stroke: #1a1a1a; stroke-opacity: 0.05"/>
    <path d="M 1157.486041 1422.310213 
L 1179.466623 912.789995 
" clip-path="url(#p13f95c63fc)" style="fill: none; stroke: #1a1a1a; stroke-opacity: 0.05"/>
    <path d="M 1157.486041 1422.310213 
L 1019.348126 1752.133367 
" clip-path="url(#p13f95c63fc)" style="fill: none; stroke: #1a1a1a; stroke-opacity: 0.05"/>
    <path d="M 1157.486041 1422.310213 
L 1112.477242 1778.072727 
" clip-path="url(#p13f95c63fc)" style="fill: none; stroke: #1a1a1a; stroke-opacity: 0.05"/>
    <path d="M 1157.486041 1422.310213 
L 1062.935952 1314.193463 
" clip-path="url(#p13f95c63fc)" style="fill: none; stroke: #1a1a1a; stroke-opacity: 0.05"/>
    <path d="M 1157.486041 1422.310213 
L 469.609971 822.383356 
" clip-path="url(#p13f95c63fc)" style="fill: none; stroke: #1a1a1a; stroke-opacity: 0.05"/>
    <path d="M 1056.601281 589.468293 
L 714.276715 503.355083 
" clip-path="url(#p13f95c63fc)" style="fill: none; stroke: #1a1a1a; stroke-opacity: 0.05"/>
    <path d="M 1056.601281 589.468293 
L 1189.505778 676.04283 
" clip-path="url(#p13f95c63fc)" style="fill: none; stroke: #1a1a1a; stroke-opacity: 0.05"/>
    <path d="M 1056.601281 589.468293 
L 1337.319334 455.283841 
" clip-path="url(#p13f95c63fc)" style="fill: none; stroke: #1a1a1a; stroke-opacity: 0.05"/>
    <path d="M 1056.601281 589.468293 
L 1180.523719 1218.215538 
" clip-path="url(#p13f95c63fc)" style="fill: none; stroke: #1a1a1a; stroke-opacity: 0.05"/>
    <path d="M 1056.601281 589.468293 
L 415.264463 989.812241 
" clip-path="url(#p13f95c63fc)" style="fill: none; stroke: #1a1a1a; stroke-opacity: 0.05"/>
    <path d="M 714.276715 503.355083 
L 1189.505778 676.04283 
" clip-path="url(#p13f95c63fc)" style="fill: none; stroke: #1a1a1a; stroke-opacity: 0.05"/>
    <path d="M 714.276715 503.355083 
L 1337.319334 455.283841 
" clip-path="url(#p13f95c63fc)" style="fill: none; stroke: #1a1a1a; stroke-opacity: 0.05"/>
    <path d="M 714.276715 503.355083 
L 500.393917 958.696637 
" clip-path="url(#p13f95c63fc)" style="fill: none; stroke: #1a1a1a; stroke-opacity: 0.05"/>
    <path d="M 714.276715 503.355083 
L 508.15629 1066.460824 
" clip-path="url(#p13f95c63fc)" style="fill: none; stroke: #1a1a1a; stroke-opacity: 0.05"/>
    <path d="M 1189.505778 676.04283 
L 1337.319334 455.283841 
" clip-path="url(#p13f95c63fc)" style="fill: none; stroke: #1a1a1a; stroke-opacity: 0.05"/>
    <path d="M 1189.505778 676.04283 
L 1076.007526 537.499326 
" clip-path="url(#p13f95c63fc)" style="fill: none; stroke: #1a1a1a; stroke-opacity: 0.05"/>
    <path d="M 1189.505778 676.04283 
L 813.953885 1037.930449 
" clip-path="url(#p13f95c63fc)" style="fill: none; stroke: #1a1a1a; stroke-opacity: 0.05"/>
    <path d="M 1189.505778 676.04283 
L 1048.26218 680.67785 
" clip-path="url(#p13f95c63fc)" style="fill: none; stroke: #1a1a1a; stroke-opacity: 0.05"/>
    <path d="M 1189.505778 676.04283 
L 802.976248 542.795682 
" clip-path="url(#p13f95c63fc)" style="fill: none; stroke: #1a1a1a; stroke-opacity: 0.05"/>
    <path d="M 1189.505778 676.04283 
L 611.587786 651.432004 
" clip-path="url(#p13f95c63fc)" style="fill: none; stroke: #1a1a1a; stroke-opacity: 0.05"/>
    <path d="M 1189.505778 676.04283 
L 1738.403613 944.088965 
" clip-path="url(#p13f95c63fc)" style="fill: none; stroke: #1a1a1a; stroke-opacity: 0.05"/>
    <path d="M 1189.505778 676.04283 
L 1004.17007 403.527273 
" clip-path="url(#p13f95c63fc)" style="fill: none; stroke: #1a1a1a; stroke-opacity: 0.05"/>
    <path d="M 1189.505778 676.04283 
L 1741.723412 1240.143584 
" clip-path="url(#p13f95c63fc)" style="fill: none; stroke: #1a1a1a; stroke-opacity: 0.05"/>
    <path d="M 1337.319334 455.283841 
L 1090.693464 1146.368023 
" clip-path="url(#p13f95c63fc)" style="fill: none; stroke: #1a1a1a; stroke-opacity: 0.05"/>
    <path d="M 1337.319334 455.283841 
L 1048.26218 680.67785 
" clip-path="url(#p13f95c63fc)" style="fill: none; stroke: #1a1a1a; stroke-opacity: 0.05"/>
    <path d="M 1337.319334 455.283841 
L 1179.466623 912.789995 
" clip-path="url(#p13f95c63fc)" style="fill: none; stroke: #1a1a1a; stroke-opacity: 0.05"/>
    <path d="M 1337.319334 455.283841 
L 1512.744347 763.428785 
" clip-path="url(#p13f95c63fc)" style="fill: none; stroke: #1a1a1a; stroke-opacity: 0.05"/>
    <path d="M 1337.319334 455.283841 
L 1076.007526 537.499326 
" clip-path="url(#p13f95c63fc)" style="fill: none; stroke: #1a1a1a; stroke-opacity: 0.05"/>
    <path d="M 716.992193 1371.424503 
L 1400.600198 1472.661015 
" clip-path="url(#p13f95c63fc)" style="fill: none; stroke: #1a1a1a; stroke-opacity: 0.05"/>
    <path d="M 1076.007526 537.499326 
L 444.297854 1338.894129 
" clip-path="url(#p13f95c63fc)" style="fill: none; stroke: #1a1a1a; stroke-opacity: 0.05"/>
    <path d="M 1076.007526 537.499326 
L 720.337983 958.102685 
" clip-path="url(#p13f95c63fc)" style="fill: none; stroke: #1a1a1a; stroke-opacity: 0.05"/>
    <path d="M 1076.007526 537.499326 
L 1506.546631 516.238523 
" clip-path="url(#p13f95c63fc)" style="fill: none; stroke: #1a1a1a; stroke-opacity: 0.05"/>
    <path d="M 1076.007526 537.499326 
L 1048.26218 680.67785 
" clip-path="url(#p13f95c63fc)" style="fill: none; stroke: #1a1a1a; stroke-opacity: 0.05"/>
    <path d="M 1076.007526 537.499326 
L 1512.744347 763.428785 
" clip-path="url(#p13f95c63fc)" style="fill: none; stroke: #1a1a1a; stroke-opacity: 0.05"/>
    <path d="M 1179.466623 912.789995 
L 1062.935952 1314.193463 
" clip-path="url(#p13f95c63fc)" style="fill: none; stroke: #1a1a1a; stroke-opacity: 0.05"/>
    <path d="M 1019.348126 1752.133367 
L 1062.935952 1314.193463 
" clip-path="url(#p13f95c63fc)" style="fill: none; stroke: #1a1a1a; stroke-opacity: 0.05"/>
    <path d="M 1112.477242 1778.072727 
L 1062.935952 1314.193463 
" clip-path="url(#p13f95c63fc)" style="fill: none; stroke: #1a1a1a; stroke-opacity: 0.05"/>
    <path d="M 500.393917 958.696637 
L 508.15629 1066.460824 
" clip-path="url(#p13f95c63fc)" style="fill: none; stroke: #1a1a1a; stroke-opacity: 0.05"/>
    <path d="M 867.29612 939.693137 
L 559.381763 1178.102966 
" clip-path="url(#p13f95c63fc)" style="fill: none; stroke: #1a1a1a; stroke-opacity: 0.05"/>
    <path d="M 867.29612 939.693137 
L 825.055746 721.850688 
" clip-path="url(#p13f95c63fc)" style="fill: none; stroke: #1a1a1a; stroke-opacity: 0.05"/>
    <path d="M 867.29612 939.693137 
L 932.195626 1381.181195 
" clip-path="url(#p13f95c63fc)" style="fill: none; stroke: #1a1a1a; stroke-opacity: 0.05"/>
    <path d="M 867.29612 939.693137 
L 770.184202 1381.931176 
" clip-path="url(#p13f95c63fc)" style="fill: none; stroke: #1a1a1a; stroke-opacity: 0.05"/>
    <path d="M 867.29612 939.693137 
L 1280.192805 621.652618 
" clip-path="url(#p13f95c63fc)" style="fill: none; stroke: #1a1a1a; stroke-opacity: 0.05"/>
    <path d="M 867.29612 939.693137 
L 437.962862 1288.122977 
" clip-path="url(#p13f95c63fc)" style="fill: none; stroke: #1a1a1a; stroke-opacity: 0.05"/>
    <path d="M 867.29612 939.693137 
L 1527.32464 584.412731 
" clip-path="url(#p13f95c63fc)" style="fill: none; stroke: #1a1a1a; stroke-opacity: 0.05"/>
    <path d="M 867.29612 939.693137 
L 483.362045 861.784696 
" clip-path="url(#p13f95c63fc)" style="fill: none; stroke: #1a1a1a; stroke-opacity: 0.05"/>
    <path d="M 559.381763 1178.102966 
L 825.055746 721.850688 
" clip-path="url(#p13f95c63fc)" style="fill: none; stroke: #1a1a1a; stroke-opacity: 0.05"/>
    <path d="M 1280.192805 621.652618 
L 1201.677672 452.779905 
" clip-path="url(#p13f95c63fc)" style="fill: none; stroke: #1a1a1a; stroke-opacity: 0.05"/>
    <path d="M 1280.192805 621.652618 
L 796.272481 468.813083 
" clip-path="url(#p13f95c63fc)" style="fill: none; stroke: #1a1a1a; stroke-opacity: 0.05"/>
    <path d="M 1201.677672 452.779905 
L 1744.708197 736.5316 
" clip-path="url(#p13f95c63fc)" style="fill: none; stroke: #1a1a1a; stroke-opacity: 0.05"/>
    <path d="M 1269.869739 1617.305442 
L 1030.529595 829.344026 
" clip-path="url(#p13f95c63fc)" style="fill: none; stroke: #1a1a1a; stroke-opacity: 0.05"/>
    <path d="M 720.337983 958.102685 
L 932.195626 1381.181195 
" clip-path="url(#p13f95c63fc)" style="fill: none; stroke: #1a1a1a; stroke-opacity: 0.05"/>
    <path d="M 720.337983 958.102685 
L 770.184202 1381.931176 
" clip-path="url(#p13f95c63fc)" style="fill: none; stroke: #1a1a1a; stroke-opacity: 0.05"/>
    <path d="M 523.071519 1298.059095 
L 768.67467 1703.873527 
" clip-path="url(#p13f95c63fc)" style="fill: none; stroke: #1a1a1a; stroke-opacity: 0.05"/>
    <path d="M 523.071519 1298.059095 
L 1068.909322 1578.947297 
" clip-path="url(#p13f95c63fc)" style="fill: none; stroke: #1a1a1a; stroke-opacity: 0.05"/>
    <path d="M 768.67467 1703.873527 
L 1068.909322 1578.947297 
" clip-path="url(#p13f95c63fc)" style="fill: none; stroke: #1a1a1a; stroke-opacity: 0.05"/>
    <path d="M 1779.988336 910.101158 
L 1787.445855 1106.723411 
" clip-path="url(#p13f95c63fc)" style="fill: none; stroke: #1a1a1a; stroke-opacity: 0.05"/>
    <path d="M 1048.26218 680.67785 
L 813.953885 1037.930449 
" clip-path="url(#p13f95c63fc)" style="fill: none; stroke: #1a1a1a; stroke-opacity: 0.05"/>
    <path d="M 1048.26218 680.67785 
L 1771.635808 1155.895525 
" clip-path="url(#p13f95c63fc)" style="fill: none; stroke: #1a1a1a; stroke-opacity: 0.05"/>
    <path d="M 1048.26218 680.67785 
L 483.362045 861.784696 
" clip-path="url(#p13f95c63fc)" style="fill: none; stroke: #1a1a1a; stroke-opacity: 0.05"/>
    <path d="M 1090.693464 1146.368023 
L 1618.512235 1623.0145 
" clip-path="url(#p13f95c63fc)" style="fill: none; stroke: #1a1a1a; stroke-opacity: 0.05"/>
    <path d="M 1090.693464 1146.368023 
L 501.99476 927.888482 
" clip-path="url(#p13f95c63fc)" style="fill: none; stroke: #1a1a1a; stroke-opacity: 0.05"/>
    <path d="M 1090.693464 1146.368023 
L 641.103764 1505.014156 
" clip-path="url(#p13f95c63fc)" style="fill: none; stroke: #1a1a1a; stroke-opacity: 0.05"/>
    <path d="M 1180.523719 1218.215538 
L 415.264463 989.812241 
" clip-path="url(#p13f95c63fc)" style="fill: none; stroke: #1a1a1a; stroke-opacity: 0.05"/>
    <path d="M 964.661283 1255.38667 
L 1677.08483 696.52119 
" clip-path="url(#p13f95c63fc)" style="fill: none; stroke: #1a1a1a; stroke-opacity: 0.05"/>
    <path d="M 932.195626 1381.181195 
L 524.01799 798.955637 
" clip-path="url(#p13f95c63fc)" style="fill: none; stroke: #1a1a1a; stroke-opacity: 0.05"/>
    <path d="M 932.195626 1381.181195 
L 770.184202 1381.931176 
" clip-path="url(#p13f95c63fc)" style="fill: none; stroke: #1a1a1a; stroke-opacity: 0.05"/>
    <path d="M 770.184202 1381.931176 
L 524.01799 798.955637 
" clip-path="url(#p13f95c63fc)" style="fill: none; stroke: #1a1a1a; stroke-opacity: 0.05"/>
    <path d="M 501.99476 927.888482 
L 641.103764 1505.014156 
" clip-path="url(#p13f95c63fc)" style="fill: none; stroke: #1a1a1a; stroke-opacity: 0.05"/>
    <path d="M 680.896284 1594.721063 
L 1342.733266 1676.816441 
" clip-path="url(#p13f95c63fc)" style="fill: none; stroke: #1a1a1a; stroke-opacity: 0.05"/>
    <path d="M 783.07266 1664.452249 
L 1481.363245 1573.67535 
" clip-path="url(#p13f95c63fc)" style="fill: none; stroke: #1a1a1a; stroke-opacity: 0.05"/>
   </g>
   <g id="PathCollection_1">
    <path d="M 1367.741236 1050.295136 
C 1369.504993 1050.295136 1371.196748 1049.594388 1372.443912 1048.347224 
C 1373.691076 1047.10006 1374.391824 1045.408305 1374.391824 1043.644548 
C 1374.391824 1041.880792 1373.691076 1040.189037 1372.443912 1038.941873 
C 1371.196748 1037.694708 1369.504993 1036.99396 1367.741236 1036.99396 
C 1365.97748 1036.99396 1364.285725 1037.694708 1363.038561 1038.941873 
C 1361.791396 1040.189037 1361.090648 1041.880792 1361.090648 1043.644548 
C 1361.090648 1045.408305 1361.791396 1047.10006 1363.038561 1048.347224 
C 1364.285725 1049.594388 1365.97748 1050.295136 1367.741236 1050.295136 
z
" clip-path="url(#p13f95c63fc)" style="fill: #825234; fill-opacity: 0.6; stroke: #825234; stroke-opacity: 0.6"/>
    <path d="M 1541.841462 695.262409 
C 1542.260785 695.262409 1542.66299 695.09581 1542.959496 694.799304 
C 1543.256002 694.502798 1543.422601 694.100593 1543.422601 693.68127 
C 1543.422601 693.261947 1543.256002 692.859742 1542.959496 692.563236 
C 1542.66299 692.26673 1542.260785 692.100131 1541.841462 692.100131 
C 1541.422139 692.100131 1541.019934 692.26673 1540.723428 692.563236 
C 1540.426922 692.859742 1540.260323 693.261947 1540.260323 693.68127 
C 1540.260323 694.100593 1540.426922 694.502798 1540.723428 694.799304 
C 1541.019934 695.09581 1541.422139 695.262409 1541.841462 695.262409 
z
" clip-path="url(#p13f95c63fc)" style="fill: #130c07; fill-opacity: 0.6; stroke: #130c07; stroke-opacity: 0.6"/>
    <path d="M 1324.023021 469.589871 
C 1324.442344 469.589871 1324.844549 469.423272 1325.141055 469.126766 
C 1325.437561 468.83026 1325.60416 468.428055 1325.60416 468.008732 
C 1325.60416 467.589409 1325.437561 467.187204 1325.141055 466.890698 
C 1324.844549 466.594192 1324.442344 466.427593 1324.023021 466.427593 
C 1323.603698 466.427593 1323.201493 466.594192 1322.904987 466.890698 
C 1322.608481 467.187204 1322.441882 467.589409 1322.441882 468.008732 
C 1322.441882 468.428055 1322.608481 468.83026 1322.904987 469.126766 
C 1323.201493 469.423272 1323.603698 469.589871 1324.023021 469.589871 
z
" clip-path="url(#p13f95c63fc)" style="fill: #130c07; fill-opacity: 0.6; stroke: #130c07; stroke-opacity: 0.6"/>
    <path d="M 1798.735537 1008.042855 
C 1799.15486 1008.042855 1799.557065 1007.876257 1799.853571 1007.579751 
C 1800.150077 1007.283244 1800.316676 1006.881039 1800.316676 1006.461717 
C 1800.316676 1006.042394 1800.150077 1005.640189 1799.853571 1005.343683 
C 1799.557065 1005.047176 1799.15486 1004.880578 1798.735537 1004.880578 
C 1798.316214 1004.880578 1797.914009 1005.047176 1797.617503 1005.343683 
C 1797.320997 1005.640189 1797.154398 1006.042394 1797.154398 1006.461717 
C 1797.154398 1006.881039 1797.320997 1007.283244 1797.617503 1007.579751 
C 1797.914009 1007.876257 1798.316214 1008.042855 1798.735537 1008.042855 
z
" clip-path="url(#p13f95c63fc)" style="fill: #130c07; fill-opacity: 0.6; stroke: #130c07; stroke-opacity: 0.6"/>
    <path d="M 1235.87571 1091.886549 
C 1240.853744 1091.886549 1245.62856 1089.908756 1249.148561 1086.388754 
C 1252.668563 1082.868753 1254.646356 1078.093937 1254.646356 1073.115903 
C 1254.646356 1068.13787 1252.668563 1063.363053 1249.148561 1059.843052 
C 1245.62856 1056.323051 1240.853744 1054.345257 1235.87571 1054.345257 
C 1230.897677 1054.345257 1226.12286 1056.323051 1222.602859 1059.843052 
C 1219.082858 1063.363053 1217.105064 1068.13787 1217.105064 1073.115903 
C 1217.105064 1078.093937 1219.082858 1082.868753 1222.602859 1086.388754 
C 1226.12286 1089.908756 1230.897677 1091.886549 1235.87571 1091.886549 
z
" clip-path="url(#p13f95c63fc)" style="fill: #de8d5a; fill-opacity: 0.6; stroke: #de8d5a; stroke-opacity: 0.6"/>
    <path d="M 1687.249153 825.207335 
C 1687.668476 825.207335 1688.070681 825.040736 1688.367187 824.74423 
C 1688.663693 824.447724 1688.830292 824.045519 1688.830292 823.626196 
C 1688.830292 823.206873 1688.663693 822.804668 1688.367187 822.508162 
C 1688.070681 822.211656 1687.668476 822.045057 1687.249153 822.045057 
C 1686.82983 822.045057 1686.427625 822.211656 1686.131119 822.508162 
C 1685.834613 822.804668 1685.668015 823.206873 1685.668015 823.626196 
C 1685.668015 824.045519 1685.834613 824.447724 1686.131119 824.74423 
C 1686.427625 825.040736 1686.82983 825.207335 1687.249153 825.207335 
z
" clip-path="url(#p13f95c63fc)" style="fill: #130c07; fill-opacity: 0.6; stroke: #130c07; stroke-opacity: 0.6"/>
    <path d="M 1128.259616 805.727836 
C 1130.598269 805.727836 1132.841451 804.79868 1134.495128 803.145003 
C 1136.148805 801.491326 1137.077961 799.248144 1137.077961 796.909491 
C 1137.077961 794.570839 1136.148805 792.327657 1134.495128 790.67398 
C 1132.841451 789.020303 1130.598269 788.091147 1128.259616 788.091147 
C 1125.920964 788.091147 1123.677782 789.020303 1122.024105 790.67398 
C 1120.370428 792.327657 1119.441272 794.570839 1119.441272 796.909491 
C 1119.441272 799.248144 1120.370428 801.491326 1122.024105 803.145003 
C 1123.677782 804.79868 1125.920964 805.727836 1128.259616 805.727836 
z
" clip-path="url(#p13f95c63fc)" style="fill: #4a2f1e; fill-opacity: 0.6; stroke: #4a2f1e; stroke-opacity: 0.6"/>
    <path d="M 998.409839 1083.243487 
C 1004.488232 1083.243487 1010.318487 1080.828516 1014.61656 1076.530444 
C 1018.914633 1072.232371 1021.329604 1066.402115 1021.329604 1060.323722 
C 1021.329604 1054.24533 1018.914633 1048.415074 1014.61656 1044.117001 
C 1010.318487 1039.818929 1004.488232 1037.403958 998.409839 1037.403958 
C 992.331446 1037.403958 986.50119 1039.818929 982.203118 1044.117001 
C 977.905045 1048.415074 975.490074 1054.24533 975.490074 1060.323722 
C 975.490074 1066.402115 977.905045 1072.232371 982.203118 1076.530444 
C 986.50119 1080.828516 992.331446 1083.243487 998.409839 1083.243487 
z
" clip-path="url(#p13f95c63fc)" style="fill: #ffc77f; fill-opacity: 0.6; stroke: #ffc77f; stroke-opacity: 0.6"/>
    <path d="M 1353.765377 1291.610023 
C 1356.317939 1291.610023 1358.766297 1290.595879 1360.57123 1288.790946 
C 1362.376164 1286.986013 1363.390307 1284.537654 1363.390307 1281.985093 
C 1363.390307 1279.432532 1362.376164 1276.984173 1360.57123 1275.17924 
C 1358.766297 1273.374307 1356.317939 1272.360163 1353.765377 1272.360163 
C 1351.212816 1272.360163 1348.764458 1273.374307 1346.959524 1275.17924 
C 1345.154591 1276.984173 1344.140448 1279.432532 1344.140448 1281.985093 
C 1344.140448 1284.537654 1345.154591 1286.986013 1346.959524 1288.790946 
C 1348.764458 1290.595879 1351.212816 1291.610023 1353.765377 1291.610023 
z
" clip-path="url(#p13f95c63fc)" style="fill: #a76943; fill-opacity: 0.6; stroke: #a76943; stroke-opacity: 0.6"/>
    <path d="M 1021.310294 1636.987966 
C 1021.729617 1636.987966 1022.131822 1636.821367 1022.428328 1636.524861 
C 1022.724834 1636.228355 1022.891433 1635.82615 1022.891433 1635.406827 
C 1022.891433 1634.987504 1022.724834 1634.585299 1022.428328 1634.288793 
C 1022.131822 1633.992287 1021.729617 1633.825688 1021.310294 1633.825688 
C 1020.890971 1633.825688 1020.488766 1633.992287 1020.19226 1634.288793 
C 1019.895754 1634.585299 1019.729156 1634.987504 1019.729156 1635.406827 
C 1019.729156 1635.82615 1019.895754 1636.228355 1020.19226 1636.524861 
C 1020.488766 1636.821367 1020.890971 1636.987966 1021.310294 1636.987966 
z
" clip-path="url(#p13f95c63fc)" style="fill: #25170f; fill-opacity: 0.6; stroke: #25170f; stroke-opacity: 0.6"/>
    <path d="M 1718.584127 1478.189711 
C 1719.00345 1478.189711 1719.405655 1478.023112 1719.702161 1477.726606 
C 1719.998667 1477.4301 1720.165266 1477.027895 1720.165266 1476.608572 
C 1720.165266 1476.189249 1719.998667 1475.787044 1719.702161 1475.490538 
C 1719.405655 1475.194032 1719.00345 1475.027433 1718.584127 1475.027433 
C 1718.164804 1475.027433 1717.762599 1475.194032 1717.466093 1475.490538 
C 1717.169587 1475.787044 1717.002988 1476.189249 1717.002988 1476.608572 
C 1717.002988 1477.027895 1717.169587 1477.4301 1717.466093 1477.726606 
C 1717.762599 1478.023112 1718.164804 1478.189711 1718.584127 1478.189711 
z
" clip-path="url(#p13f95c63fc)" style="fill: #130c07; fill-opacity: 0.6; stroke: #130c07; stroke-opacity: 0.6"/>
    <path d="M 1438.769175 1736.258268 
C 1439.188498 1736.258268 1439.590703 1736.091669 1439.887209 1735.795163 
C 1440.183715 1735.498657 1440.350314 1735.096452 1440.350314 1734.677129 
C 1440.350314 1734.257806 1440.183715 1733.855601 1439.887209 1733.559095 
C 1439.590703 1733.262589 1439.188498 1733.09599 1438.769175 1733.09599 
C 1438.349852 1733.09599 1437.947647 1733.262589 1437.651141 1733.559095 
C 1437.354635 1733.855601 1437.188036 1734.257806 1437.188036 1734.677129 
C 1437.188036 1735.096452 1437.354635 1735.498657 1437.651141 1735.795163 
C 1437.947647 1736.091669 1438.349852 1736.258268 1438.769175 1736.258268 
z
" clip-path="url(#p13f95c63fc)" style="fill: #130c07; fill-opacity: 0.6; stroke: #130c07; stroke-opacity: 0.6"/>
    <path d="M 1157.486041 1431.053497 
C 1159.804787 1431.053497 1162.028875 1430.132249 1163.668476 1428.492648 
C 1165.308077 1426.853047 1166.229325 1424.628959 1166.229325 1422.310213 
C 1166.229325 1419.991467 1165.308077 1417.767379 1163.668476 1416.127778 
C 1162.028875 1414.488177 1159.804787 1413.566929 1157.486041 1413.566929 
C 1155.167295 1413.566929 1152.943206 1414.488177 1151.303605 1416.127778 
C 1149.664004 1417.767379 1148.742757 1419.991467 1148.742757 1422.310213 
C 1148.742757 1424.628959 1149.664004 1426.853047 1151.303605 1428.492648 
C 1152.943206 1430.132249 1155.167295 1431.053497 1157.486041 1431.053497 
z
" clip-path="url(#p13f95c63fc)" style="fill: #825234; fill-opacity: 0.6; stroke: #825234; stroke-opacity: 0.6"/>
    <path d="M 1056.601281 593.05906 
C 1057.553564 593.05906 1058.466971 592.680714 1059.140337 592.007349 
C 1059.813702 591.333983 1060.192048 590.420576 1060.192048 589.468293 
C 1060.192048 588.516011 1059.813702 587.602603 1059.140337 586.929238 
C 1058.466971 586.255873 1057.553564 585.877527 1056.601281 585.877527 
C 1055.648999 585.877527 1054.735591 586.255873 1054.062226 586.929238 
C 1053.388861 587.602603 1053.010515 588.516011 1053.010515 589.468293 
C 1053.010515 590.420576 1053.388861 591.333983 1054.062226 592.007349 
C 1054.735591 592.680714 1055.648999 593.05906 1056.601281 593.05906 
z
" clip-path="url(#p13f95c63fc)" style="fill: #4a2f1e; fill-opacity: 0.6; stroke: #4a2f1e; stroke-opacity: 0.6"/>
    <path d="M 714.276715 512.803794 
C 716.782542 512.803794 719.186075 511.808218 720.957962 510.036331 
C 722.729849 508.264443 723.725425 505.860911 723.725425 503.355083 
C 723.725425 500.849256 722.729849 498.445723 720.957962 496.673836 
C 719.186075 494.901948 716.782542 493.906373 714.276715 493.906373 
C 711.770887 493.906373 709.367355 494.901948 707.595467 496.673836 
C 705.82358 498.445723 704.828004 500.849256 704.828004 503.355083 
C 704.828004 505.860911 705.82358 508.264443 707.595467 510.036331 
C 709.367355 511.808218 711.770887 512.803794 714.276715 512.803794 
z
" clip-path="url(#p13f95c63fc)" style="fill: #5d3b25; fill-opacity: 0.6; stroke: #5d3b25; stroke-opacity: 0.6"/>
    <path d="M 1189.505778 685.131332 
C 1191.916077 685.131332 1194.227981 684.17371 1195.93232 682.469372 
C 1197.636659 680.765033 1198.594281 678.453129 1198.594281 676.04283 
C 1198.594281 673.632531 1197.636659 671.320627 1195.93232 669.616288 
C 1194.227981 667.911949 1191.916077 666.954327 1189.505778 666.954327 
C 1187.095479 666.954327 1184.783575 667.911949 1183.079236 669.616288 
C 1181.374897 671.320627 1180.417275 673.632531 1180.417275 676.04283 
C 1180.417275 678.453129 1181.374897 680.765033 1183.079236 682.469372 
C 1184.783575 684.17371 1187.095479 685.131332 1189.505778 685.131332 
z
" clip-path="url(#p13f95c63fc)" style="fill: #b9754b; fill-opacity: 0.6; stroke: #b9754b; stroke-opacity: 0.6"/>
    <path d="M 1337.319334 467.249229 
C 1340.492592 467.249229 1343.536309 465.98848 1345.780141 463.744648 
C 1348.023973 461.500816 1349.284722 458.457099 1349.284722 455.283841 
C 1349.284722 452.110583 1348.023973 449.066866 1345.780141 446.823034 
C 1343.536309 444.579201 1340.492592 443.318453 1337.319334 443.318453 
C 1334.146076 443.318453 1331.102359 444.579201 1328.858527 446.823034 
C 1326.614694 449.066866 1325.353946 452.110583 1325.353946 455.283841 
C 1325.353946 458.457099 1326.614694 461.500816 1328.858527 463.744648 
C 1331.102359 465.98848 1334.146076 467.249229 1337.319334 467.249229 
z
" clip-path="url(#p13f95c63fc)" style="fill: #945e3c; fill-opacity: 0.6; stroke: #945e3c; stroke-opacity: 0.6"/>
    <path d="M 716.992193 1373.005641 
C 717.411516 1373.005641 717.813721 1372.839043 718.110227 1372.542537 
C 718.406733 1372.246031 718.573332 1371.843826 718.573332 1371.424503 
C 718.573332 1371.00518 718.406733 1370.602975 718.110227 1370.306469 
C 717.813721 1370.009963 717.411516 1369.843364 716.992193 1369.843364 
C 716.57287 1369.843364 716.170665 1370.009963 715.874159 1370.306469 
C 715.577653 1370.602975 715.411054 1371.00518 715.411054 1371.424503 
C 715.411054 1371.843826 715.577653 1372.246031 715.874159 1372.542537 
C 716.170665 1372.839043 716.57287 1373.005641 716.992193 1373.005641 
z
" clip-path="url(#p13f95c63fc)" style="fill: #130c07; fill-opacity: 0.6; stroke: #130c07; stroke-opacity: 0.6"/>
    <path d="M 1400.600198 1474.242154 
C 1401.019521 1474.242154 1401.421726 1474.075555 1401.718232 1473.779049 
C 1402.014739 1473.482543 1402.181337 1473.080338 1402.181337 1472.661015 
C 1402.181337 1472.241692 1402.014739 1471.839487 1401.718232 1471.542981 
C 1401.421726 1471.246475 1401.019521 1471.079876 1400.600198 1471.079876 
C 1400.180876 1471.079876 1399.778671 1471.246475 1399.482164 1471.542981 
C 1399.185658 1471.839487 1399.01906 1472.241692 1399.01906 1472.661015 
C 1399.01906 1473.080338 1399.185658 1473.482543 1399.482164 1473.779049 
C 1399.778671 1474.075555 1400.180876 1474.242154 1400.600198 1474.242154 
z
" clip-path="url(#p13f95c63fc)" style="fill: #130c07; fill-opacity: 0.6; stroke: #130c07; stroke-opacity: 0.6"/>
    <path d="M 1076.007526 544.509939 
C 1077.866762 544.509939 1079.650099 543.771257 1080.964778 542.456578 
C 1082.279456 541.1419 1083.018139 539.358563 1083.018139 537.499326 
C 1083.018139 535.64009 1082.279456 533.856753 1080.964778 532.542075 
C 1079.650099 531.227396 1077.866762 530.488714 1076.007526 530.488714 
C 1074.14829 530.488714 1072.364953 531.227396 1071.050274 532.542075 
C 1069.735596 533.856753 1068.996913 535.64009 1068.996913 537.499326 
C 1068.996913 539.358563 1069.735596 541.1419 1071.050274 542.456578 
C 1072.364953 543.771257 1074.14829 544.509939 1076.007526 544.509939 
z
" clip-path="url(#p13f95c63fc)" style="fill: #825234; fill-opacity: 0.6; stroke: #825234; stroke-opacity: 0.6"/>
    <path d="M 444.297854 1340.475268 
C 444.717177 1340.475268 445.119382 1340.308669 445.415888 1340.012163 
C 445.712394 1339.715657 445.878993 1339.313452 445.878993 1338.894129 
C 445.878993 1338.474806 445.712394 1338.072601 445.415888 1337.776095 
C 445.119382 1337.479589 444.717177 1337.31299 444.297854 1337.31299 
C 443.878531 1337.31299 443.476326 1337.479589 443.17982 1337.776095 
C 442.883314 1338.072601 442.716715 1338.474806 442.716715 1338.894129 
C 442.716715 1339.313452 442.883314 1339.715657 443.17982 1340.012163 
C 443.476326 1340.308669 443.878531 1340.475268 444.297854 1340.475268 
z
" clip-path="url(#p13f95c63fc)" style="fill-opacity: 0.6; stroke: #000000; stroke-opacity: 0.6"/>
    <path d="M 1179.466623 915.22226 
C 1180.111667 915.22226 1180.730378 914.965981 1181.186493 914.509866 
C 1181.642608 914.053751 1181.898887 913.435039 1181.898887 912.789995 
C 1181.898887 912.144951 1181.642608 911.52624 1181.186493 911.070125 
C 1180.730378 910.61401 1180.111667 910.357731 1179.466623 910.357731 
C 1178.821579 910.357731 1178.202867 910.61401 1177.746752 911.070125 
C 1177.290637 911.52624 1177.034358 912.144951 1177.034358 912.789995 
C 1177.034358 913.435039 1177.290637 914.053751 1177.746752 914.509866 
C 1178.202867 914.965981 1178.821579 915.22226 1179.466623 915.22226 
z
" clip-path="url(#p13f95c63fc)" style="fill: #25170f; fill-opacity: 0.6; stroke: #25170f; stroke-opacity: 0.6"/>
    <path d="M 1019.348126 1753.714505 
C 1019.767449 1753.714505 1020.169654 1753.547907 1020.46616 1753.251401 
C 1020.762666 1752.954894 1020.929265 1752.552689 1020.929265 1752.133367 
C 1020.929265 1751.714044 1020.762666 1751.311839 1020.46616 1751.015333 
C 1020.169654 1750.718826 1019.767449 1750.552228 1019.348126 1750.552228 
C 1018.928803 1750.552228 1018.526598 1750.718826 1018.230092 1751.015333 
C 1017.933586 1751.311839 1017.766987 1751.714044 1017.766987 1752.133367 
C 1017.766987 1752.552689 1017.933586 1752.954894 1018.230092 1753.251401 
C 1018.526598 1753.547907 1018.928803 1753.714505 1019.348126 1753.714505 
z
" clip-path="url(#p13f95c63fc)" style="fill: #130c07; fill-opacity: 0.6; stroke: #130c07; stroke-opacity: 0.6"/>
    <path d="M 1112.477242 1779.653866 
C 1112.896564 1779.653866 1113.298769 1779.487267 1113.595276 1779.190761 
C 1113.891782 1778.894255 1114.05838 1778.49205 1114.05838 1778.072727 
C 1114.05838 1777.653404 1113.891782 1777.251199 1113.595276 1776.954693 
C 1113.298769 1776.658187 1112.896564 1776.491588 1112.477242 1776.491588 
C 1112.057919 1776.491588 1111.655714 1776.658187 1111.359208 1776.954693 
C 1111.062701 1777.251199 1110.896103 1777.653404 1110.896103 1778.072727 
C 1110.896103 1778.49205 1111.062701 1778.894255 1111.359208 1779.190761 
C 1111.655714 1779.487267 1112.057919 1779.653866 1112.477242 1779.653866 
z
" clip-path="url(#p13f95c63fc)" style="fill: #130c07; fill-opacity: 0.6; stroke: #130c07; stroke-opacity: 0.6"/>
    <path d="M 1062.935952 1315.79888 
C 1063.361714 1315.79888 1063.770094 1315.629723 1064.071153 1315.328664 
C 1064.372212 1315.027605 1064.541369 1314.619225 1064.541369 1314.193463 
C 1064.541369 1313.767702 1064.372212 1313.359321 1064.071153 1313.058262 
C 1063.770094 1312.757203 1063.361714 1312.588046 1062.935952 1312.588046 
C 1062.510191 1312.588046 1062.10181 1312.757203 1061.800751 1313.058262 
C 1061.499692 1313.359321 1061.330536 1313.767702 1061.330536 1314.193463 
C 1061.330536 1314.619225 1061.499692 1315.027605 1061.800751 1315.328664 
C 1062.10181 1315.629723 1062.510191 1315.79888 1062.935952 1315.79888 
z
" clip-path="url(#p13f95c63fc)" style="fill: #382316; fill-opacity: 0.6; stroke: #382316; stroke-opacity: 0.6"/>
    <path d="M 500.393917 960.319639 
C 500.824343 960.319639 501.237197 960.148629 501.541553 959.844273 
C 501.84591 959.539916 502.01692 959.127062 502.01692 958.696637 
C 502.01692 958.266212 501.84591 957.853358 501.541553 957.549001 
C 501.237197 957.244644 500.824343 957.073635 500.393917 957.073635 
C 499.963492 957.073635 499.550638 957.244644 499.246282 957.549001 
C 498.941925 957.853358 498.770915 958.266212 498.770915 958.696637 
C 498.770915 959.127062 498.941925 959.539916 499.246282 959.844273 
C 499.550638 960.148629 499.963492 960.319639 500.393917 960.319639 
z
" clip-path="url(#p13f95c63fc)" style="fill: #25170f; fill-opacity: 0.6; stroke: #25170f; stroke-opacity: 0.6"/>
    <path d="M 508.15629 1068.041963 
C 508.575613 1068.041963 508.977818 1067.875364 509.274324 1067.578858 
C 509.57083 1067.282352 509.737429 1066.880147 509.737429 1066.460824 
C 509.737429 1066.041501 509.57083 1065.639296 509.274324 1065.34279 
C 508.977818 1065.046284 508.575613 1064.879685 508.15629 1064.879685 
C 507.736967 1064.879685 507.334762 1065.046284 507.038256 1065.34279 
C 506.74175 1065.639296 506.575151 1066.041501 506.575151 1066.460824 
C 506.575151 1066.880147 506.74175 1067.282352 507.038256 1067.578858 
C 507.334762 1067.875364 507.736967 1068.041963 508.15629 1068.041963 
z
" clip-path="url(#p13f95c63fc)" style="fill: #130c07; fill-opacity: 0.6; stroke: #130c07; stroke-opacity: 0.6"/>
    <path d="M 867.29612 944.826011 
C 868.657374 944.826011 869.963058 944.285179 870.92561 943.322627 
C 871.888163 942.360075 872.428995 941.054391 872.428995 939.693137 
C 872.428995 938.331883 871.888163 937.026199 870.92561 936.063647 
C 869.963058 935.101095 868.657374 934.560263 867.29612 934.560263 
C 865.934866 934.560263 864.629182 935.101095 863.66663 936.063647 
C 862.704078 937.026199 862.163246 938.331883 862.163246 939.693137 
C 862.163246 941.054391 862.704078 942.360075 863.66663 943.322627 
C 864.629182 944.285179 865.934866 944.826011 867.29612 944.826011 
z
" clip-path="url(#p13f95c63fc)" style="fill: #945e3c; fill-opacity: 0.6; stroke: #945e3c; stroke-opacity: 0.6"/>
    <path d="M 559.381763 1179.684105 
C 559.801086 1179.684105 560.203291 1179.517506 560.499797 1179.221 
C 560.796303 1178.924494 560.962902 1178.522289 560.962902 1178.102966 
C 560.962902 1177.683643 560.796303 1177.281438 560.499797 1176.984932 
C 560.203291 1176.688426 559.801086 1176.521827 559.381763 1176.521827 
C 558.96244 1176.521827 558.560235 1176.688426 558.263729 1176.984932 
C 557.967223 1177.281438 557.800624 1177.683643 557.800624 1178.102966 
C 557.800624 1178.522289 557.967223 1178.924494 558.263729 1179.221 
C 558.560235 1179.517506 558.96244 1179.684105 559.381763 1179.684105 
z
" clip-path="url(#p13f95c63fc)" style="fill: #130c07; fill-opacity: 0.6; stroke: #130c07; stroke-opacity: 0.6"/>
    <path d="M 825.055746 723.431827 
C 825.475069 723.431827 825.877274 723.265229 826.17378 722.968722 
C 826.470286 722.672216 826.636885 722.270011 826.636885 721.850688 
C 826.636885 721.431366 826.470286 721.029161 826.17378 720.732655 
C 825.877274 720.436148 825.475069 720.26955 825.055746 720.26955 
C 824.636423 720.26955 824.234218 720.436148 823.937712 720.732655 
C 823.641206 721.029161 823.474607 721.431366 823.474607 721.850688 
C 823.474607 722.270011 823.641206 722.672216 823.937712 722.968722 
C 824.234218 723.265229 824.636423 723.431827 825.055746 723.431827 
z
" clip-path="url(#p13f95c63fc)" style="fill: #130c07; fill-opacity: 0.6; stroke: #130c07; stroke-opacity: 0.6"/>
    <path d="M 469.609971 823.964495 
C 470.029294 823.964495 470.431499 823.797896 470.728005 823.50139 
C 471.024511 823.204884 471.19111 822.802679 471.19111 822.383356 
C 471.19111 821.964033 471.024511 821.561828 470.728005 821.265322 
C 470.431499 820.968816 470.029294 820.802218 469.609971 820.802218 
C 469.190648 820.802218 468.788443 820.968816 468.491937 821.265322 
C 468.195431 821.561828 468.028832 821.964033 468.028832 822.383356 
C 468.028832 822.802679 468.195431 823.204884 468.491937 823.50139 
C 468.788443 823.797896 469.190648 823.964495 469.609971 823.964495 
z
" clip-path="url(#p13f95c63fc)" style="fill-opacity: 0.6; stroke: #000000; stroke-opacity: 0.6"/>
    <path d="M 1280.192805 623.953264 
C 1280.802943 623.953264 1281.388174 623.710853 1281.819607 623.27942 
C 1282.25104 622.847987 1282.493451 622.262756 1282.493451 621.652618 
C 1282.493451 621.042479 1282.25104 620.457248 1281.819607 620.025815 
C 1281.388174 619.594382 1280.802943 619.351972 1280.192805 619.351972 
C 1279.582666 619.351972 1278.997435 619.594382 1278.566002 620.025815 
C 1278.134569 620.457248 1277.892159 621.042479 1277.892159 621.652618 
C 1277.892159 622.262756 1278.134569 622.847987 1278.566002 623.27942 
C 1278.997435 623.710853 1279.582666 623.953264 1280.192805 623.953264 
z
" clip-path="url(#p13f95c63fc)" style="fill: #382316; fill-opacity: 0.6; stroke: #382316; stroke-opacity: 0.6"/>
    <path d="M 1201.677672 454.361222 
C 1202.097043 454.361222 1202.499293 454.194604 1202.795832 453.898065 
C 1203.092372 453.601526 1203.258989 453.199275 1203.258989 452.779905 
C 1203.258989 452.360535 1203.092372 451.958285 1202.795832 451.661746 
C 1202.499293 451.365206 1202.097043 451.198589 1201.677672 451.198589 
C 1201.258302 451.198589 1200.856052 451.365206 1200.559513 451.661746 
C 1200.262973 451.958285 1200.096356 452.360535 1200.096356 452.779905 
C 1200.096356 453.199275 1200.262973 453.601526 1200.559513 453.898065 
C 1200.856052 454.194604 1201.258302 454.361222 1201.677672 454.361222 
z
" clip-path="url(#p13f95c63fc)" style="fill: #25170f; fill-opacity: 0.6; stroke: #25170f; stroke-opacity: 0.6"/>
    <path d="M 1744.708197 738.112739 
C 1745.12752 738.112739 1745.529725 737.94614 1745.826231 737.649634 
C 1746.122737 737.353128 1746.289336 736.950923 1746.289336 736.5316 
C 1746.289336 736.112277 1746.122737 735.710072 1745.826231 735.413566 
C 1745.529725 735.11706 1745.12752 734.950461 1744.708197 734.950461 
C 1744.288874 734.950461 1743.886669 735.11706 1743.590163 735.413566 
C 1743.293657 735.710072 1743.127058 736.112277 1743.127058 736.5316 
C 1743.127058 736.950923 1743.293657 737.353128 1743.590163 737.649634 
C 1743.886669 737.94614 1744.288874 738.112739 1744.708197 738.112739 
z
" clip-path="url(#p13f95c63fc)" style="fill: #130c07; fill-opacity: 0.6; stroke: #130c07; stroke-opacity: 0.6"/>
    <path d="M 1269.869739 1618.886581 
C 1270.289062 1618.886581 1270.691267 1618.719982 1270.987773 1618.423476 
C 1271.284279 1618.12697 1271.450878 1617.724765 1271.450878 1617.305442 
C 1271.450878 1616.886119 1271.284279 1616.483914 1270.987773 1616.187408 
C 1270.691267 1615.890902 1270.289062 1615.724303 1269.869739 1615.724303 
C 1269.450416 1615.724303 1269.048211 1615.890902 1268.751705 1616.187408 
C 1268.455199 1616.483914 1268.2886 1616.886119 1268.2886 1617.305442 
C 1268.2886 1617.724765 1268.455199 1618.12697 1268.751705 1618.423476 
C 1269.048211 1618.719982 1269.450416 1618.886581 1269.869739 1618.886581 
z
" clip-path="url(#p13f95c63fc)" style="fill: #130c07; fill-opacity: 0.6; stroke: #130c07; stroke-opacity: 0.6"/>
    <path d="M 1030.529595 830.925165 
C 1030.948918 830.925165 1031.351123 830.758566 1031.647629 830.46206 
C 1031.944135 830.165554 1032.110734 829.763349 1032.110734 829.344026 
C 1032.110734 828.924703 1031.944135 828.522498 1031.647629 828.225992 
C 1031.351123 827.929486 1030.948918 827.762887 1030.529595 827.762887 
C 1030.110272 827.762887 1029.708067 827.929486 1029.411561 828.225992 
C 1029.115055 828.522498 1028.948456 828.924703 1028.948456 829.344026 
C 1028.948456 829.763349 1029.115055 830.165554 1029.411561 830.46206 
C 1029.708067 830.758566 1030.110272 830.925165 1030.529595 830.925165 
z
" clip-path="url(#p13f95c63fc)" style="fill: #130c07; fill-opacity: 0.6; stroke: #130c07; stroke-opacity: 0.6"/>
    <path d="M 720.337983 962.547111 
C 721.516659 962.547111 722.647218 962.078818 723.480667 961.245369 
C 724.314117 960.411919 724.78241 959.28136 724.78241 958.102685 
C 724.78241 956.924009 724.314117 955.79345 723.480667 954.960001 
C 722.647218 954.126551 721.516659 953.658258 720.337983 953.658258 
C 719.159308 953.658258 718.028749 954.126551 717.195299 954.960001 
C 716.36185 955.79345 715.893557 956.924009 715.893557 958.102685 
C 715.893557 959.28136 716.36185 960.411919 717.195299 961.245369 
C 718.028749 962.078818 719.159308 962.547111 720.337983 962.547111 
z
" clip-path="url(#p13f95c63fc)" style="fill: #382316; fill-opacity: 0.6; stroke: #382316; stroke-opacity: 0.6"/>
    <path d="M 1506.546631 517.819662 
C 1506.965954 517.819662 1507.368159 517.653063 1507.664665 517.356557 
C 1507.961171 517.060051 1508.127769 516.657846 1508.127769 516.238523 
C 1508.127769 515.8192 1507.961171 515.416995 1507.664665 515.120489 
C 1507.368159 514.823983 1506.965954 514.657384 1506.546631 514.657384 
C 1506.127308 514.657384 1505.725103 514.823983 1505.428597 515.120489 
C 1505.132091 515.416995 1504.965492 515.8192 1504.965492 516.238523 
C 1504.965492 516.657846 1505.132091 517.060051 1505.428597 517.356557 
C 1505.725103 517.653063 1506.127308 517.819662 1506.546631 517.819662 
z
" clip-path="url(#p13f95c63fc)" style="fill-opacity: 0.6; stroke: #000000; stroke-opacity: 0.6"/>
    <path d="M 523.071519 1299.640234 
C 523.490842 1299.640234 523.893047 1299.473635 524.189553 1299.177129 
C 524.486059 1298.880623 524.652658 1298.478418 524.652658 1298.059095 
C 524.652658 1297.639772 524.486059 1297.237567 524.189553 1296.941061 
C 523.893047 1296.644555 523.490842 1296.477956 523.071519 1296.477956 
C 522.652196 1296.477956 522.249991 1296.644555 521.953485 1296.941061 
C 521.656979 1297.237567 521.49038 1297.639772 521.49038 1298.059095 
C 521.49038 1298.478418 521.656979 1298.880623 521.953485 1299.177129 
C 522.249991 1299.473635 522.652196 1299.640234 523.071519 1299.640234 
z
" clip-path="url(#p13f95c63fc)" style="fill: #25170f; fill-opacity: 0.6; stroke: #25170f; stroke-opacity: 0.6"/>
    <path d="M 768.67467 1705.454666 
C 769.093993 1705.454666 769.496198 1705.288067 769.792704 1704.991561 
C 770.08921 1704.695055 770.255809 1704.29285 770.255809 1703.873527 
C 770.255809 1703.454204 770.08921 1703.051999 769.792704 1702.755493 
C 769.496198 1702.458987 769.093993 1702.292388 768.67467 1702.292388 
C 768.255347 1702.292388 767.853142 1702.458987 767.556636 1702.755493 
C 767.26013 1703.051999 767.093531 1703.454204 767.093531 1703.873527 
C 767.093531 1704.29285 767.26013 1704.695055 767.556636 1704.991561 
C 767.853142 1705.288067 768.255347 1705.454666 768.67467 1705.454666 
z
" clip-path="url(#p13f95c63fc)" style="fill: #25170f; fill-opacity: 0.6; stroke: #25170f; stroke-opacity: 0.6"/>
    <path d="M 1068.909322 1580.528436 
C 1069.328645 1580.528436 1069.73085 1580.361837 1070.027356 1580.065331 
C 1070.323862 1579.768825 1070.490461 1579.36662 1070.490461 1578.947297 
C 1070.490461 1578.527974 1070.323862 1578.125769 1070.027356 1577.829263 
C 1069.73085 1577.532757 1069.328645 1577.366158 1068.909322 1577.366158 
C 1068.489999 1577.366158 1068.087794 1577.532757 1067.791288 1577.829263 
C 1067.494782 1578.125769 1067.328183 1578.527974 1067.328183 1578.947297 
C 1067.328183 1579.36662 1067.494782 1579.768825 1067.791288 1580.065331 
C 1068.087794 1580.361837 1068.489999 1580.528436 1068.909322 1580.528436 
z
" clip-path="url(#p13f95c63fc)" style="fill: #25170f; fill-opacity: 0.6; stroke: #25170f; stroke-opacity: 0.6"/>
    <path d="M 1779.988336 911.682297 
C 1780.407659 911.682297 1780.809864 911.515698 1781.10637 911.219192 
C 1781.402876 910.922686 1781.569475 910.520481 1781.569475 910.101158 
C 1781.569475 909.681835 1781.402876 909.27963 1781.10637 908.983124 
C 1780.809864 908.686618 1780.407659 908.520019 1779.988336 908.520019 
C 1779.569013 908.520019 1779.166808 908.686618 1778.870302 908.983124 
C 1778.573796 909.27963 1778.407197 909.681835 1778.407197 910.101158 
C 1778.407197 910.520481 1778.573796 910.922686 1778.870302 911.219192 
C 1779.166808 911.515698 1779.569013 911.682297 1779.988336 911.682297 
z
" clip-path="url(#p13f95c63fc)" style="fill: #130c07; fill-opacity: 0.6; stroke: #130c07; stroke-opacity: 0.6"/>
    <path d="M 1787.445855 1108.304549 
C 1787.865178 1108.304549 1788.267383 1108.137951 1788.563889 1107.841445 
C 1788.860395 1107.544938 1789.026994 1107.142733 1789.026994 1106.723411 
C 1789.026994 1106.304088 1788.860395 1105.901883 1788.563889 1105.605377 
C 1788.267383 1105.30887 1787.865178 1105.142272 1787.445855 1105.142272 
C 1787.026532 1105.142272 1786.624327 1105.30887 1786.327821 1105.605377 
C 1786.031315 1105.901883 1785.864716 1106.304088 1785.864716 1106.723411 
C 1785.864716 1107.142733 1786.031315 1107.544938 1786.327821 1107.841445 
C 1786.624327 1108.137951 1787.026532 1108.304549 1787.445855 1108.304549 
z
" clip-path="url(#p13f95c63fc)" style="fill: #130c07; fill-opacity: 0.6; stroke: #130c07; stroke-opacity: 0.6"/>
    <path d="M 1048.26218 685.392141 
C 1049.512424 685.392141 1050.71163 684.895413 1051.595686 684.011357 
C 1052.479743 683.127301 1052.97647 681.928095 1052.97647 680.67785 
C 1052.97647 679.427606 1052.479743 678.2284 1051.595686 677.344344 
C 1050.71163 676.460287 1049.512424 675.96356 1048.26218 675.96356 
C 1047.011935 675.96356 1045.812729 676.460287 1044.928673 677.344344 
C 1044.044616 678.2284 1043.547889 679.427606 1043.547889 680.67785 
C 1043.547889 681.928095 1044.044616 683.127301 1044.928673 684.011357 
C 1045.812729 684.895413 1047.011935 685.392141 1048.26218 685.392141 
z
" clip-path="url(#p13f95c63fc)" style="fill: #6f462d; fill-opacity: 0.6; stroke: #6f462d; stroke-opacity: 0.6"/>
    <path d="M 813.953885 1039.511587 
C 814.373208 1039.511587 814.775413 1039.344989 815.071919 1039.048483 
C 815.368425 1038.751976 815.535024 1038.349771 815.535024 1037.930449 
C 815.535024 1037.511126 815.368425 1037.108921 815.071919 1036.812415 
C 814.775413 1036.515908 814.373208 1036.34931 813.953885 1036.34931 
C 813.534562 1036.34931 813.132357 1036.515908 812.835851 1036.812415 
C 812.539345 1037.108921 812.372746 1037.511126 812.372746 1037.930449 
C 812.372746 1038.349771 812.539345 1038.751976 812.835851 1039.048483 
C 813.132357 1039.344989 813.534562 1039.511587 813.953885 1039.511587 
z
" clip-path="url(#p13f95c63fc)" style="fill: #130c07; fill-opacity: 0.6; stroke: #130c07; stroke-opacity: 0.6"/>
    <path d="M 1090.693464 1151.433288 
C 1092.036788 1151.433288 1093.325273 1150.899579 1094.275147 1149.949706 
C 1095.22502 1148.999833 1095.758728 1147.711347 1095.758728 1146.368023 
C 1095.758728 1145.0247 1095.22502 1143.736214 1094.275147 1142.786341 
C 1093.325273 1141.836468 1092.036788 1141.302759 1090.693464 1141.302759 
C 1089.35014 1141.302759 1088.061655 1141.836468 1087.111782 1142.786341 
C 1086.161908 1143.736214 1085.6282 1145.0247 1085.6282 1146.368023 
C 1085.6282 1147.711347 1086.161908 1148.999833 1087.111782 1149.949706 
C 1088.061655 1150.899579 1089.35014 1151.433288 1090.693464 1151.433288 
z
" clip-path="url(#p13f95c63fc)" style="fill: #382316; fill-opacity: 0.6; stroke: #382316; stroke-opacity: 0.6"/>
    <path d="M 802.976248 544.376821 
C 803.395571 544.376821 803.797776 544.210222 804.094282 543.913716 
C 804.390788 543.61721 804.557387 543.215005 804.557387 542.795682 
C 804.557387 542.376359 804.390788 541.974154 804.094282 541.677648 
C 803.797776 541.381142 803.395571 541.214543 802.976248 541.214543 
C 802.556925 541.214543 802.15472 541.381142 801.858214 541.677648 
C 801.561708 541.974154 801.39511 542.376359 801.39511 542.795682 
C 801.39511 543.215005 801.561708 543.61721 801.858214 543.913716 
C 802.15472 544.210222 802.556925 544.376821 802.976248 544.376821 
z
" clip-path="url(#p13f95c63fc)" style="fill-opacity: 0.6; stroke: #000000; stroke-opacity: 0.6"/>
    <path d="M 1771.635808 1157.476664 
C 1772.055131 1157.476664 1772.457336 1157.310065 1772.753842 1157.013559 
C 1773.050348 1156.717053 1773.216947 1156.314848 1773.216947 1155.895525 
C 1773.216947 1155.476202 1773.050348 1155.073997 1772.753842 1154.777491 
C 1772.457336 1154.480985 1772.055131 1154.314386 1771.635808 1154.314386 
C 1771.216485 1154.314386 1770.81428 1154.480985 1770.517774 1154.777491 
C 1770.221268 1155.073997 1770.054669 1155.476202 1770.054669 1155.895525 
C 1770.054669 1156.314848 1770.221268 1156.717053 1770.517774 1157.013559 
C 1770.81428 1157.310065 1771.216485 1157.476664 1771.635808 1157.476664 
z
" clip-path="url(#p13f95c63fc)" style="fill: #130c07; fill-opacity: 0.6; stroke: #130c07; stroke-opacity: 0.6"/>
    <path d="M 483.362045 876.103863 
C 487.159532 876.103863 490.801996 874.595105 493.487225 871.909876 
C 496.172454 869.224647 497.681212 865.582183 497.681212 861.784696 
C 497.681212 857.987208 496.172454 854.344745 493.487225 851.659516 
C 490.801996 848.974286 487.159532 847.465529 483.362045 847.465529 
C 479.564557 847.465529 475.922094 848.974286 473.236864 851.659516 
C 470.551635 854.344745 469.042877 857.987208 469.042877 861.784696 
C 469.042877 865.582183 470.551635 869.224647 473.236864 871.909876 
C 475.922094 874.595105 479.564557 876.103863 483.362045 876.103863 
z
" clip-path="url(#p13f95c63fc)" style="fill: #382316; fill-opacity: 0.6; stroke: #382316; stroke-opacity: 0.6"/>
    <path d="M 611.587786 653.013143 
C 612.007109 653.013143 612.409314 652.846544 612.70582 652.550038 
C 613.002326 652.253532 613.168925 651.851327 613.168925 651.432004 
C 613.168925 651.012681 613.002326 650.610476 612.70582 650.31397 
C 612.409314 650.017464 612.007109 649.850865 611.587786 649.850865 
C 611.168463 649.850865 610.766258 650.017464 610.469752 650.31397 
C 610.173246 650.610476 610.006647 651.012681 610.006647 651.432004 
C 610.006647 651.851327 610.173246 652.253532 610.469752 652.550038 
C 610.766258 652.846544 611.168463 653.013143 611.587786 653.013143 
z
" clip-path="url(#p13f95c63fc)" style="fill-opacity: 0.6; stroke: #000000; stroke-opacity: 0.6"/>
    <path d="M 1738.403613 945.670104 
C 1738.822936 945.670104 1739.225141 945.503505 1739.521647 945.206999 
C 1739.818153 944.910493 1739.984752 944.508288 1739.984752 944.088965 
C 1739.984752 943.669642 1739.818153 943.267437 1739.521647 942.970931 
C 1739.225141 942.674425 1738.822936 942.507826 1738.403613 942.507826 
C 1737.98429 942.507826 1737.582085 942.674425 1737.285579 942.970931 
C 1736.989073 943.267437 1736.822474 943.669642 1736.822474 944.088965 
C 1736.822474 944.508288 1736.989073 944.910493 1737.285579 945.206999 
C 1737.582085 945.503505 1737.98429 945.670104 1738.403613 945.670104 
z
" clip-path="url(#p13f95c63fc)" style="fill-opacity: 0.6; stroke: #000000; stroke-opacity: 0.6"/>
    <path d="M 1004.17007 405.108412 
C 1004.589393 405.108412 1004.991598 404.941813 1005.288104 404.645307 
C 1005.58461 404.348801 1005.751209 403.946596 1005.751209 403.527273 
C 1005.751209 403.10795 1005.58461 402.705745 1005.288104 402.409239 
C 1004.991598 402.112733 1004.589393 401.946134 1004.17007 401.946134 
C 1003.750747 401.946134 1003.348542 402.112733 1003.052036 402.409239 
C 1002.75553 402.705745 1002.588931 403.10795 1002.588931 403.527273 
C 1002.588931 403.946596 1002.75553 404.348801 1003.052036 404.645307 
C 1003.348542 404.941813 1003.750747 405.108412 1004.17007 405.108412 
z
" clip-path="url(#p13f95c63fc)" style="fill-opacity: 0.6; stroke: #000000; stroke-opacity: 0.6"/>
    <path d="M 1741.723412 1241.724723 
C 1742.142735 1241.724723 1742.54494 1241.558124 1742.841446 1241.261618 
C 1743.137952 1240.965112 1743.304551 1240.562907 1743.304551 1240.143584 
C 1743.304551 1239.724261 1743.137952 1239.322056 1742.841446 1239.02555 
C 1742.54494 1238.729044 1742.142735 1238.562445 1741.723412 1238.562445 
C 1741.304089 1238.562445 1740.901884 1238.729044 1740.605378 1239.02555 
C 1740.308872 1239.322056 1740.142273 1239.724261 1740.142273 1240.143584 
C 1740.142273 1240.562907 1740.308872 1240.965112 1740.605378 1241.261618 
C 1740.901884 1241.558124 1741.304089 1241.724723 1741.723412 1241.724723 
z
" clip-path="url(#p13f95c63fc)" style="fill-opacity: 0.6; stroke: #000000; stroke-opacity: 0.6"/>
    <path d="M 1180.523719 1219.796677 
C 1180.943042 1219.796677 1181.345247 1219.630078 1181.641753 1219.333572 
C 1181.938259 1219.037066 1182.104858 1218.634861 1182.104858 1218.215538 
C 1182.104858 1217.796215 1181.938259 1217.39401 1181.641753 1217.097504 
C 1181.345247 1216.800998 1180.943042 1216.634399 1180.523719 1216.634399 
C 1180.104396 1216.634399 1179.702191 1216.800998 1179.405685 1217.097504 
C 1179.109179 1217.39401 1178.94258 1217.796215 1178.94258 1218.215538 
C 1178.94258 1218.634861 1179.109179 1219.037066 1179.405685 1219.333572 
C 1179.702191 1219.630078 1180.104396 1219.796677 1180.523719 1219.796677 
z
" clip-path="url(#p13f95c63fc)" style="fill: #130c07; fill-opacity: 0.6; stroke: #130c07; stroke-opacity: 0.6"/>
    <path d="M 415.264463 991.39338 
C 415.683786 991.39338 416.085991 991.226782 416.382497 990.930275 
C 416.679003 990.633769 416.845602 990.231564 416.845602 989.812241 
C 416.845602 989.392919 416.679003 988.990714 416.382497 988.694207 
C 416.085991 988.397701 415.683786 988.231103 415.264463 988.231103 
C 414.84514 988.231103 414.442935 988.397701 414.146429 988.694207 
C 413.849923 988.990714 413.683324 989.392919 413.683324 989.812241 
C 413.683324 990.231564 413.849923 990.633769 414.146429 990.930275 
C 414.442935 991.226782 414.84514 991.39338 415.264463 991.39338 
z
" clip-path="url(#p13f95c63fc)" style="fill: #130c07; fill-opacity: 0.6; stroke: #130c07; stroke-opacity: 0.6"/>
    <path d="M 964.661283 1256.967809 
C 965.080606 1256.967809 965.482811 1256.80121 965.779317 1256.504704 
C 966.075824 1256.208198 966.242422 1255.805993 966.242422 1255.38667 
C 966.242422 1254.967347 966.075824 1254.565142 965.779317 1254.268636 
C 965.482811 1253.97213 965.080606 1253.805531 964.661283 1253.805531 
C 964.241961 1253.805531 963.839756 1253.97213 963.543249 1254.268636 
C 963.246743 1254.565142 963.080145 1254.967347 963.080145 1255.38667 
C 963.080145 1255.805993 963.246743 1256.208198 963.543249 1256.504704 
C 963.839756 1256.80121 964.241961 1256.967809 964.661283 1256.967809 
z
" clip-path="url(#p13f95c63fc)" style="fill: #130c07; fill-opacity: 0.6; stroke: #130c07; stroke-opacity: 0.6"/>
    <path d="M 1677.08483 698.102329 
C 1677.504152 698.102329 1677.906357 697.93573 1678.202864 697.639224 
C 1678.49937 697.342718 1678.665968 696.940513 1678.665968 696.52119 
C 1678.665968 696.101867 1678.49937 695.699662 1678.202864 695.403156 
C 1677.906357 695.10665 1677.504152 694.940052 1677.08483 694.940052 
C 1676.665507 694.940052 1676.263302 695.10665 1675.966796 695.403156 
C 1675.670289 695.699662 1675.503691 696.101867 1675.503691 696.52119 
C 1675.503691 696.940513 1675.670289 697.342718 1675.966796 697.639224 
C 1676.263302 697.93573 1676.665507 698.102329 1677.08483 698.102329 
z
" clip-path="url(#p13f95c63fc)" style="fill: #130c07; fill-opacity: 0.6; stroke: #130c07; stroke-opacity: 0.6"/>
    <path d="M 932.195626 1382.772456 
C 932.617633 1382.772456 933.022413 1382.604791 933.320818 1382.306386 
C 933.619222 1382.007982 933.786887 1381.603202 933.786887 1381.181195 
C 933.786887 1380.759187 933.619222 1380.354407 933.320818 1380.056003 
C 933.022413 1379.757599 932.617633 1379.589933 932.195626 1379.589933 
C 931.773619 1379.589933 931.368839 1379.757599 931.070434 1380.056003 
C 930.77203 1380.354407 930.604365 1380.759187 930.604365 1381.181195 
C 930.604365 1381.603202 930.77203 1382.007982 931.070434 1382.306386 
C 931.368839 1382.604791 931.773619 1382.772456 932.195626 1382.772456 
z
" clip-path="url(#p13f95c63fc)" style="fill: #4a2f1e; fill-opacity: 0.6; stroke: #4a2f1e; stroke-opacity: 0.6"/>
    <path d="M 770.184202 1383.522438 
C 770.606209 1383.522438 771.010989 1383.354772 771.309394 1383.056368 
C 771.607798 1382.757964 771.775463 1382.353184 771.775463 1381.931176 
C 771.775463 1381.509169 771.607798 1381.104389 771.309394 1380.805985 
C 771.010989 1380.50758 770.606209 1380.339915 770.184202 1380.339915 
C 769.762195 1380.339915 769.357415 1380.50758 769.05901 1380.805985 
C 768.760606 1381.104389 768.592941 1381.509169 768.592941 1381.931176 
C 768.592941 1382.353184 768.760606 1382.757964 769.05901 1383.056368 
C 769.357415 1383.354772 769.762195 1383.522438 770.184202 1383.522438 
z
" clip-path="url(#p13f95c63fc)" style="fill: #4a2f1e; fill-opacity: 0.6; stroke: #4a2f1e; stroke-opacity: 0.6"/>
    <path d="M 524.01799 800.536776 
C 524.437313 800.536776 524.839518 800.370177 525.136024 800.073671 
C 525.43253 799.777165 525.599129 799.37496 525.599129 798.955637 
C 525.599129 798.536314 525.43253 798.134109 525.136024 797.837603 
C 524.839518 797.541097 524.437313 797.374498 524.01799 797.374498 
C 523.598667 797.374498 523.196462 797.541097 522.899956 797.837603 
C 522.60345 798.134109 522.436852 798.536314 522.436852 798.955637 
C 522.436852 799.37496 522.60345 799.777165 522.899956 800.073671 
C 523.196462 800.370177 523.598667 800.536776 524.01799 800.536776 
z
" clip-path="url(#p13f95c63fc)" style="fill: #25170f; fill-opacity: 0.6; stroke: #25170f; stroke-opacity: 0.6"/>
    <path d="M 1618.512235 1624.595639 
C 1618.931558 1624.595639 1619.333763 1624.42904 1619.630269 1624.132534 
C 1619.926775 1623.836028 1620.093374 1623.433823 1620.093374 1623.0145 
C 1620.093374 1622.595177 1619.926775 1622.192972 1619.630269 1621.896466 
C 1619.333763 1621.59996 1618.931558 1621.433361 1618.512235 1621.433361 
C 1618.092912 1621.433361 1617.690707 1621.59996 1617.394201 1621.896466 
C 1617.097695 1622.192972 1616.931096 1622.595177 1616.931096 1623.0145 
C 1616.931096 1623.433823 1617.097695 1623.836028 1617.394201 1624.132534 
C 1617.690707 1624.42904 1618.092912 1624.595639 1618.512235 1624.595639 
z
" clip-path="url(#p13f95c63fc)" style="fill-opacity: 0.6; stroke: #000000; stroke-opacity: 0.6"/>
    <path d="M 796.272481 470.394222 
C 796.691804 470.394222 797.094009 470.227623 797.390515 469.931117 
C 797.687021 469.634611 797.85362 469.232406 797.85362 468.813083 
C 797.85362 468.39376 797.687021 467.991555 797.390515 467.695049 
C 797.094009 467.398543 796.691804 467.231944 796.272481 467.231944 
C 795.853158 467.231944 795.450953 467.398543 795.154447 467.695049 
C 794.857941 467.991555 794.691342 468.39376 794.691342 468.813083 
C 794.691342 469.232406 794.857941 469.634611 795.154447 469.931117 
C 795.450953 470.227623 795.853158 470.394222 796.272481 470.394222 
z
" clip-path="url(#p13f95c63fc)" style="fill-opacity: 0.6; stroke: #000000; stroke-opacity: 0.6"/>
    <path d="M 501.99476 929.469621 
C 502.414083 929.469621 502.816288 929.303022 503.112794 929.006516 
C 503.4093 928.71001 503.575899 928.307805 503.575899 927.888482 
C 503.575899 927.469159 503.4093 927.066954 503.112794 926.770448 
C 502.816288 926.473942 502.414083 926.307343 501.99476 926.307343 
C 501.575437 926.307343 501.173232 926.473942 500.876726 926.770448 
C 500.58022 927.066954 500.413621 927.469159 500.413621 927.888482 
C 500.413621 928.307805 500.58022 928.71001 500.876726 929.006516 
C 501.173232 929.303022 501.575437 929.469621 501.99476 929.469621 
z
" clip-path="url(#p13f95c63fc)" style="fill: #130c07; fill-opacity: 0.6; stroke: #130c07; stroke-opacity: 0.6"/>
    <path d="M 641.103764 1506.595295 
C 641.523087 1506.595295 641.925292 1506.428696 642.221798 1506.13219 
C 642.518304 1505.835684 642.684903 1505.433479 642.684903 1505.014156 
C 642.684903 1504.594833 642.518304 1504.192628 642.221798 1503.896122 
C 641.925292 1503.599616 641.523087 1503.433017 641.103764 1503.433017 
C 640.684441 1503.433017 640.282236 1503.599616 639.98573 1503.896122 
C 639.689224 1504.192628 639.522625 1504.594833 639.522625 1505.014156 
C 639.522625 1505.433479 639.689224 1505.835684 639.98573 1506.13219 
C 640.282236 1506.428696 640.684441 1506.595295 641.103764 1506.595295 
z
" clip-path="url(#p13f95c63fc)" style="fill: #130c07; fill-opacity: 0.6; stroke: #130c07; stroke-opacity: 0.6"/>
    <path d="M 437.962862 1289.704116 
C 438.382185 1289.704116 438.78439 1289.537517 439.080896 1289.241011 
C 439.377403 1288.944505 439.544001 1288.5423 439.544001 1288.122977 
C 439.544001 1287.703654 439.377403 1287.301449 439.080896 1287.004943 
C 438.78439 1286.708437 438.382185 1286.541838 437.962862 1286.541838 
C 437.54354 1286.541838 437.141335 1286.708437 436.844828 1287.004943 
C 436.548322 1287.301449 436.381724 1287.703654 436.381724 1288.122977 
C 436.381724 1288.5423 436.548322 1288.944505 436.844828 1289.241011 
C 437.141335 1289.537517 437.54354 1289.704116 437.962862 1289.704116 
z
" clip-path="url(#p13f95c63fc)" style="fill: #130c07; fill-opacity: 0.6; stroke: #130c07; stroke-opacity: 0.6"/>
    <path d="M 1527.32464 585.99387 
C 1527.743963 585.99387 1528.146168 585.827271 1528.442674 585.530765 
C 1528.73918 585.234259 1528.905779 584.832054 1528.905779 584.412731 
C 1528.905779 583.993408 1528.73918 583.591203 1528.442674 583.294697 
C 1528.146168 582.998191 1527.743963 582.831592 1527.32464 582.831592 
C 1526.905317 582.831592 1526.503112 582.998191 1526.206606 583.294697 
C 1525.9101 583.591203 1525.743501 583.993408 1525.743501 584.412731 
C 1525.743501 584.832054 1525.9101 585.234259 1526.206606 585.530765 
C 1526.503112 585.827271 1526.905317 585.99387 1527.32464 585.99387 
z
" clip-path="url(#p13f95c63fc)" style="fill: #130c07; fill-opacity: 0.6; stroke: #130c07; stroke-opacity: 0.6"/>
    <path d="M 680.896284 1596.302202 
C 681.315607 1596.302202 681.717812 1596.135603 682.014318 1595.839097 
C 682.310824 1595.542591 682.477423 1595.140386 682.477423 1594.721063 
C 682.477423 1594.30174 682.310824 1593.899535 682.014318 1593.603029 
C 681.717812 1593.306523 681.315607 1593.139924 680.896284 1593.139924 
C 680.476961 1593.139924 680.074756 1593.306523 679.77825 1593.603029 
C 679.481744 1593.899535 679.315145 1594.30174 679.315145 1594.721063 
C 679.315145 1595.140386 679.481744 1595.542591 679.77825 1595.839097 
C 680.074756 1596.135603 680.476961 1596.302202 680.896284 1596.302202 
z
" clip-path="url(#p13f95c63fc)" style="fill: #130c07; fill-opacity: 0.6; stroke: #130c07; stroke-opacity: 0.6"/>
    <path d="M 1342.733266 1678.39758 
C 1343.152589 1678.39758 1343.554794 1678.230981 1343.8513 1677.934475 
C 1344.147807 1677.637969 1344.314405 1677.235764 1344.314405 1676.816441 
C 1344.314405 1676.397118 1344.147807 1675.994913 1343.8513 1675.698407 
C 1343.554794 1675.401901 1343.152589 1675.235302 1342.733266 1675.235302 
C 1342.313944 1675.235302 1341.911739 1675.401901 1341.615232 1675.698407 
C 1341.318726 1675.994913 1341.152128 1676.397118 1341.152128 1676.816441 
C 1341.152128 1677.235764 1341.318726 1677.637969 1341.615232 1677.934475 
C 1341.911739 1678.230981 1342.313944 1678.39758 1342.733266 1678.39758 
z
" clip-path="url(#p13f95c63fc)" style="fill: #130c07; fill-opacity: 0.6; stroke: #130c07; stroke-opacity: 0.6"/>
    <path d="M 1512.744347 765.009924 
C 1513.16367 765.009924 1513.565875 764.843325 1513.862381 764.546819 
C 1514.158887 764.250313 1514.325486 763.848108 1514.325486 763.428785 
C 1514.325486 763.009462 1514.158887 762.607257 1513.862381 762.310751 
C 1513.565875 762.014245 1513.16367 761.847646 1512.744347 761.847646 
C 1512.325024 761.847646 1511.922819 762.014245 1511.626313 762.310751 
C 1511.329807 762.607257 1511.163208 763.009462 1511.163208 763.428785 
C 1511.163208 763.848108 1511.329807 764.250313 1511.626313 764.546819 
C 1511.922819 764.843325 1512.325024 765.009924 1512.744347 765.009924 
z
" clip-path="url(#p13f95c63fc)" style="fill: #25170f; fill-opacity: 0.6; stroke: #25170f; stroke-opacity: 0.6"/>
    <path d="M 783.07266 1666.033388 
C 783.491983 1666.033388 783.894188 1665.866789 784.190694 1665.570283 
C 784.4872 1665.273777 784.653799 1664.871572 784.653799 1664.452249 
C 784.653799 1664.032926 784.4872 1663.630721 784.190694 1663.334215 
C 783.894188 1663.037709 783.491983 1662.87111 783.07266 1662.87111 
C 782.653337 1662.87111 782.251132 1663.037709 781.954626 1663.334215 
C 781.65812 1663.630721 781.491521 1664.032926 781.491521 1664.452249 
C 781.491521 1664.871572 781.65812 1665.273777 781.954626 1665.570283 
C 782.251132 1665.866789 782.653337 1666.033388 783.07266 1666.033388 
z
" clip-path="url(#p13f95c63fc)" style="fill: #130c07; fill-opacity: 0.6; stroke: #130c07; stroke-opacity: 0.6"/>
    <path d="M 1481.363245 1575.256489 
C 1481.782568 1575.256489 1482.184773 1575.08989 1482.481279 1574.793384 
C 1482.777785 1574.496878 1482.944384 1574.094673 1482.944384 1573.67535 
C 1482.944384 1573.256027 1482.777785 1572.853822 1482.481279 1572.557316 
C 1482.184773 1572.26081 1481.782568 1572.094211 1481.363245 1572.094211 
C 1480.943922 1572.094211 1480.541717 1572.26081 1480.245211 1572.557316 
C 1479.948705 1572.853822 1479.782106 1573.256027 1479.782106 1573.67535 
C 1479.782106 1574.094673 1479.948705 1574.496878 1480.245211 1574.793384 
C 1480.541717 1575.08989 1480.943922 1575.256489 1481.363245 1575.256489 
z
" clip-path="url(#p13f95c63fc)" style="fill: #130c07; fill-opacity: 0.6; stroke: #130c07; stroke-opacity: 0.6"/>
   </g>
   <g id="patch_3">
    <path d="M 270 1922.4 
L 270 259.2 
" style="fill: none; stroke: #ffffff; stroke-width: 1.25; stroke-linejoin: miter; stroke-linecap: square"/>
   </g>
   <g id="patch_4">
    <path d="M 1944 1922.4 
L 1944 259.2 
" style="fill: none; stroke: #ffffff; stroke-width: 1.25; stroke-linejoin: miter; stroke-linecap: square"/>
   </g>
   <g id="patch_5">
    <path d="M 270 1922.4 
L 1944 1922.4 
" style="fill: none; stroke: #ffffff; stroke-width: 1.25; stroke-linejoin: miter; stroke-linecap: square"/>
   </g>
   <g id="patch_6">
    <path d="M 270 259.2 
L 1944 259.2 
" style="fill: none; stroke: #ffffff; stroke-width: 1.25; stroke-linejoin: miter; stroke-linecap: square"/>
   </g>
  </g>
 </g>
 <defs>
  <clipPath id="p13f95c63fc">
   <rect x="270" y="259.2" width="1674" height="1663.2"/>
  </clipPath>
 </defs>
</svg>
